<?xml version="1.0" standalone="no"?>
<!DOCTYPE svg PUBLIC "-//W3C//DTD SVG 20010904//EN"
 "http://www.w3.org/TR/2001/REC-SVG-20010904/DTD/svg10.dtd">
<svg version="1.0" xmlns="http://www.w3.org/2000/svg"
 width="1000.000000pt" height="1000.000000pt" viewBox="0 0 1000.000000 1000.000000"
 preserveAspectRatio="xMidYMid meet">
<metadata>
Created by potrace 1.14, written by Peter Selinger 2001-2017
</metadata>
<g transform="translate(0.000000,1000.000000) scale(0.100000,-0.100000)"
fill="#000000" stroke="none">
<path d="M1923 9150 c-65 -21 -123 -132 -103 -199 4 -14 31 -74 59 -133 177
-371 297 -780 345 -1168 9 -69 25 -267 36 -440 11 -173 24 -353 29 -400 5 -47
61 -287 125 -535 l115 -450 11 -265 c6 -146 11 -321 11 -390 0 -232 -51 -357
-268 -650 -75 -102 -242 -336 -372 -520 -129 -184 -297 -423 -375 -530 -77
-107 -194 -271 -259 -365 -66 -93 -131 -185 -145 -202 l-24 -33 58 -72 c84
-104 421 -439 539 -537 479 -396 987 -688 1561 -896 357 -130 771 -225 1184
-272 176 -21 737 -23 930 -5 169 16 350 41 377 52 12 5 113 112 224 237 560
630 682 765 879 968 401 413 495 507 521 520 14 8 170 77 347 154 177 77 366
163 419 190 375 188 677 496 859 876 176 368 210 735 99 1072 -80 241 -202
414 -446 629 -260 231 -455 342 -848 485 -95 34 -190 74 -209 87 -20 13 -103
79 -185 146 -141 114 -151 125 -187 196 -138 273 -384 540 -651 708 -158 100
-417 199 -589 226 -266 42 -653 53 -800 22 -217 -45 -404 -127 -579 -251 -77
-55 -117 -77 -155 -85 -97 -20 -130 -6 -449 181 -460 271 -604 371 -793 552
-127 120 -229 246 -404 497 -230 329 -264 372 -358 442 -143 106 -423 190
-529 158z"/>
</g>
</svg>
