<svg xmlns="http://www.w3.org/2000/svg" width="1333.333" height="1333.333" version="1.0" viewBox="0 0 1000 1000"><path d="M192.3 85c-6.5 2.1-12.3 13.2-10.3 19.9.4 1.4 3.1 7.4 5.9 13.3 17.7 37.1 29.7 78 34.5 116.8.9 6.9 2.5 26.7 3.6 44s2.4 35.3 2.9 40c.5 4.7 6.1 28.7 12.5 53.5l11.5 45L254 444c.6 14.6 1.1 32.1 1.1 39 0 23.2-5.1 35.7-26.8 65-7.5 10.2-24.2 33.6-37.2 52-12.9 18.4-29.7 42.3-37.5 53-7.7 10.7-19.4 27.1-25.9 36.5-6.6 9.3-13.1 18.5-14.5 20.2l-2.4 3.3 5.8 7.2c8.4 10.4 42.1 43.9 53.9 53.7 47.9 39.6 98.7 68.8 156.1 89.6 35.7 13 77.1 22.5 118.4 27.2 17.6 2.1 73.7 2.3 93 .5 16.9-1.6 35-4.1 37.7-5.2 1.2-.5 11.3-11.2 22.4-23.7 56-63 68.2-76.5 87.9-96.8 40.1-41.3 49.5-50.7 52.1-52 1.4-.8 17-7.7 34.7-15.4 17.7-7.7 36.6-16.3 41.9-19 37.5-18.8 67.7-49.6 85.9-87.6 17.6-36.8 21-73.5 9.9-107.2-8-24.1-20.2-41.4-44.6-62.9-26-23.1-45.5-34.2-84.8-48.5-9.5-3.4-19-7.4-20.9-8.7-2-1.3-10.3-7.9-18.5-14.6-14.1-11.4-15.1-12.5-18.7-19.6-13.8-27.3-38.4-54-65.1-70.8-15.8-10-41.7-19.9-58.9-22.6-26.6-4.2-65.3-5.3-80-2.2-21.7 4.5-40.4 12.7-57.9 25.1-7.7 5.5-11.7 7.7-15.5 8.5-9.7 2-13 .6-44.9-18.1-46-27.1-60.4-37.1-79.3-55.2-12.7-12-22.9-24.6-40.4-49.7-23-32.9-26.4-37.2-35.8-44.2-14.3-10.6-42.3-19-52.9-15.8z"/></svg>