<?xml version="1.0" standalone="no"?>
<!DOCTYPE svg PUBLIC "-//W3C//DTD SVG 20010904//EN"
 "http://www.w3.org/TR/2001/REC-SVG-20010904/DTD/svg10.dtd">
<svg version="1.0" xmlns="http://www.w3.org/2000/svg"
 width="1000.000000pt" height="1000.000000pt" viewBox="0 0 1000.000000 1000.000000"
 preserveAspectRatio="xMidYMid meet">
<metadata>
Created by potrace 1.14, written by Peter Selinger 2001-2017
</metadata>
<g transform="translate(0.000000,1000.000000) scale(0.100000,-0.100000)"
fill="#000000" stroke="none">
<path d="M792 9241 c-58 -15 -108 -56 -136 -112 -39 -78 -35 -131 14 -229 239
-475 404 -1014 475 -1545 15 -116 55 -640 74 -975 l10 -165 151 -589 152 -590
13 -355 c8 -196 16 -385 19 -420 13 -157 -30 -366 -109 -526 -49 -100 -70
-130 -371 -542 -116 -158 -295 -412 -399 -563 -193 -282 -441 -633 -597 -844
l-88 -119 0 -833 0 -834 3198 0 3197 0 614 635 c337 350 626 642 640 649 14 8
224 100 466 206 469 204 583 261 747 368 562 372 952 957 1039 1562 27 185 22
451 -10 598 -45 204 -118 377 -234 550 -55 83 -111 148 -251 288 -230 230
-397 359 -642 498 -140 79 -279 138 -559 240 l-240 87 -223 183 -224 182 -57
110 c-134 257 -325 495 -546 681 -331 278 -746 461 -1130 497 -530 50 -514 49
-675 37 -271 -20 -441 -67 -685 -186 -104 -52 -185 -100 -264 -160 -62 -47
-132 -91 -155 -97 -22 -7 -75 -13 -116 -13 -60 0 -86 6 -130 26 -49 23 -245
137 -755 440 -268 160 -552 388 -743 599 -116 129 -179 212 -451 596 -124 177
-238 327 -274 363 -133 131 -246 194 -466 260 -142 43 -225 55 -279 42z"/>
</g>
</svg>
