<?xml version="1.0" standalone="no"?>
<!DOCTYPE svg PUBLIC "-//W3C//DTD SVG 20010904//EN"
 "http://www.w3.org/TR/2001/REC-SVG-20010904/DTD/svg10.dtd">
<svg version="1.0" xmlns="http://www.w3.org/2000/svg"
 width="1000.000000pt" height="1000.000000pt" viewBox="0 0 1000.000000 1000.000000"
 preserveAspectRatio="xMidYMid meet">
<metadata>
Created by potrace 1.14, written by Peter Selinger 2001-2017
</metadata>
<g transform="translate(0.000000,1000.000000) scale(0.100000,-0.100000)"
fill="#000000" stroke="none">
<path d="M0 5000 l0 -5000 5000 0 5000 0 0 5000 0 5000 -5000 0 -5000 0 0
-5000z m1423 4670 c145 -37 261 -79 337 -124 131 -77 200 -151 400 -433 326
-459 363 -505 541 -679 251 -246 362 -324 959 -674 162 -95 314 -179 339 -187
91 -27 195 -8 271 49 238 181 432 272 700 329 235 51 817 20 1115 -58 533
-139 1009 -536 1275 -1063 27 -53 50 -76 227 -221 109 -89 221 -171 248 -184
28 -12 124 -48 215 -80 424 -149 689 -308 1008 -603 184 -172 287 -303 375
-478 116 -232 162 -470 145 -755 -35 -586 -413 -1203 -955 -1556 -133 -87
-306 -172 -698 -343 -203 -90 -386 -171 -407 -181 -67 -34 -824 -831 -1333
-1404 -264 -297 -489 -550 -500 -563 -17 -19 -41 -26 -145 -42 -269 -41 -454
-53 -800 -54 -494 -1 -805 31 -1254 130 -1191 264 -2301 912 -3071 1794 -141
161 -132 147 -108 173 11 12 76 101 143 197 68 96 218 308 335 470 116 162
301 423 410 580 109 157 286 406 394 554 234 323 278 395 319 517 51 157 54
204 36 652 l-16 402 -100 395 c-194 766 -173 652 -203 1100 -31 472 -47 637
-81 830 -72 407 -186 755 -387 1184 l-60 128 12 52 c14 61 44 107 86 133 64
39 113 41 228 13z"/>
</g>
</svg>
