<svg xmlns="http://www.w3.org/2000/svg" width="2730.667" height="2730.667" version="1.0" viewBox="0 0 2048 2048"><path d="M396.9 174.4c-11.6 4.1-19.7 13.9-22.9 27.4-2 8.8-.8 13.2 9.5 34.6 38.5 79.4 62.9 160.1 73.4 242.1 3 23.7 3.8 32.4 6.6 73 1.4 20.3 3.2 46.6 4 58.4.9 11.7 2 28.8 2.5 38 1.1 19.6-.4 13.1 28.4 125.4 11.3 44.4 21.1 84.2 21.6 88.5 1.2 9.5 5.4 117.5 5.3 136.7-.1 21.3-3.5 38.2-11.9 58.8-8.6 21-13.4 28.4-57.5 88.2-17.4 23.5-48.3 67.2-82.4 116.5-16.1 23.2-40.9 58.1-79 111-13.2 18.4-30.3 42.5-38 53.5-7.6 11-17.2 24.4-21.3 29.8-6.4 8.6-7.2 10-6 11.5.7.9 6.7 8 13.3 15.7 49.1 57.2 95.1 99.6 163.4 151 69.6 52.2 157.1 99.8 245.6 133.7 102.4 39.2 205.8 61.2 314.5 66.9 29.1 1.5 102.7.6 128-1.5 34.4-3 86.7-9.3 92-11.2.8-.3 4.2-3.6 7.4-7.2 3.2-3.7 17.9-20.2 32.5-36.6 26-29.4 40.4-45.5 62.6-70.6 61.4-69.2 79.2-88.8 106-116.5 17.1-17.6 44.3-45.7 60.4-62.5 16.2-16.8 36-37.1 44-45.3l14.6-14.7 18-7.9c9.9-4.4 41.9-18.4 71-31.1 71.3-31.2 89.3-40.4 117.1-59.2 56.4-38.2 102.5-91.3 132.5-152.6 16.3-33.2 24.8-60.3 31-99.1 2.6-16.1 3.7-54 2-69.1-4.7-41.5-19-81.4-40.9-114.1-11.7-17.5-22.2-30-40.7-48.4-27-26.9-50.1-46.1-75.5-62.7-38.6-25.2-62.9-36.7-126.4-59.9l-33.9-12.3-24.1-19.6c-13.3-10.7-29.7-24-36.4-29.5l-12.2-10-8.6-16.5c-19.3-36.7-37.4-61.1-68.8-92.6-23.2-23.1-37.5-34.5-64-51.2-16.4-10.3-36.9-20.6-55.6-27.9-37.1-14.6-60.1-19.7-105-23.3-13.5-1.1-32.1-2.7-41.5-3.6-20-1.9-52.6-1.4-69.5 1.1-35 5.1-58.4 12.3-89.5 27.5-18.9 9.2-29.1 15.5-46.9 28.9-18.8 14.2-25.5 16.7-43.7 15.9-13.7-.6-16.5-1.8-44.5-18.4-12.6-7.5-35.9-21.3-51.9-30.6-53.3-31.3-71.2-42.7-94-59.8-21-15.8-37.9-30.3-56.1-48.5-27-27-38-40.5-69.4-85-54.4-77.2-59.7-84.1-73.7-95.7-21.7-18-40.9-26.9-80.3-37.2-14.8-3.9-28-4.8-35.1-2.2z"/></svg>