<?xml version="1.0" standalone="no"?>
<!DOCTYPE svg PUBLIC "-//W3C//DTD SVG 20010904//EN"
 "http://www.w3.org/TR/2001/REC-SVG-20010904/DTD/svg10.dtd">
<svg version="1.0" xmlns="http://www.w3.org/2000/svg"
 width="1000.000000pt" height="1000.000000pt" viewBox="0 0 1000.000000 1000.000000"
 preserveAspectRatio="xMidYMid meet">
<metadata>
Created by potrace 1.14, written by Peter Selinger 2001-2017
</metadata>
<g transform="translate(0.000000,1000.000000) scale(0.100000,-0.100000)"
fill="#000000" stroke="none">
<path d="M0 5000 l0 -5000 5000 0 5000 0 0 5000 0 5000 -5000 0 -5000 0 0
-5000z m1450 4620 c244 -58 386 -128 513 -253 60 -59 70 -73 306 -407 96 -135
208 -288 249 -340 202 -253 478 -491 782 -677 266 -162 659 -389 710 -410 117
-48 212 -26 354 81 182 137 403 235 651 287 245 52 836 17 1125 -66 523 -151
972 -520 1233 -1014 l56 -104 205 -167 c224 -182 210 -174 488 -269 411 -142
713 -333 1034 -655 264 -265 384 -487 445 -823 35 -194 20 -444 -40 -680 -100
-391 -380 -815 -715 -1085 -221 -178 -344 -245 -926 -500 -232 -102 -396 -179
-414 -196 -122 -115 -857 -889 -1046 -1102 -130 -146 -326 -366 -435 -489
-110 -123 -229 -257 -263 -296 l-64 -73 -161 -21 c-298 -39 -351 -42 -682 -48
-556 -9 -978 36 -1470 158 -732 182 -1491 538 -2055 963 -391 295 -621 507
-914 841 l-94 109 32 40 c18 23 71 95 117 161 46 66 190 269 319 450 130 182
298 420 375 530 191 276 323 461 519 729 240 328 292 447 302 681 3 66 -1 278
-9 470 l-15 350 -131 510 c-72 281 -135 542 -141 580 -5 39 -19 214 -30 390
-36 558 -47 658 -100 931 -72 364 -200 739 -369 1083 -59 120 -63 159 -27 237
33 71 93 111 171 113 17 1 68 -8 115 -19z"/>
</g>
</svg>
