<?xml version="1.0" standalone="no"?>
<!DOCTYPE svg PUBLIC "-//W3C//DTD SVG 20010904//EN"
 "http://www.w3.org/TR/2001/REC-SVG-20010904/DTD/svg10.dtd">
<svg version="1.0" xmlns="http://www.w3.org/2000/svg"
 width="2048.000000pt" height="2048.000000pt" viewBox="0 0 2048.000000 2048.000000"
 preserveAspectRatio="xMidYMid meet">
<metadata>
Created by potrace 1.14, written by Peter Selinger 2001-2017
</metadata>
<g transform="translate(0.000000,2048.000000) scale(0.100000,-0.100000)"
fill="#000000" stroke="none">
<path d="M3969 18736 c-116 -41 -197 -139 -229 -274 -20 -88 -8 -132 95 -346
385 -794 629 -1601 734 -2421 30 -237 38 -324 66 -730 14 -203 32 -466 40
-584 9 -117 20 -288 25 -380 11 -196 -4 -131 284 -1254 113 -444 211 -842 216
-885 12 -95 54 -1175 53 -1367 -1 -213 -35 -382 -119 -588 -86 -210 -134 -284
-575 -882 -174 -235 -483 -672 -824 -1165 -161 -232 -409 -581 -790 -1110
-132 -184 -303 -425 -380 -535 -76 -110 -172 -244 -213 -298 -64 -86 -72 -100
-60 -115 7 -9 67 -80 133 -157 491 -572 951 -996 1634 -1510 696 -522 1571
-998 2456 -1337 1024 -392 2058 -612 3145 -669 291 -15 1027 -6 1280 15 344
30 867 93 920 112 8 3 42 36 74 72 32 37 179 202 325 366 260 294 404 455 626
706 614 692 792 888 1060 1165 171 176 443 457 604 625 162 168 360 371 440
453 l146 147 180 79 c99 44 419 184 710 311 713 312 893 404 1171 592 564 382
1025 913 1325 1526 163 332 248 603 310 991 26 161 37 540 20 691 -47 415
-190 814 -409 1141 -117 175 -222 300 -407 484 -270 269 -501 461 -755 627
-386 252 -629 367 -1264 599 l-339 123 -241 196 c-133 107 -297 240 -364 295
l-122 100 -86 165 c-193 367 -374 611 -688 926 -232 231 -375 345 -640 512
-164 103 -369 206 -556 279 -371 146 -601 197 -1050 233 -135 11 -321 27 -415
36 -200 19 -526 14 -695 -11 -350 -51 -584 -123 -895 -275 -189 -92 -291 -155
-469 -289 -188 -142 -255 -167 -437 -159 -137 6 -165 18 -445 184 -126 75
-359 213 -519 306 -533 313 -712 427 -940 598 -210 158 -379 303 -561 485
-270 270 -380 405 -694 850 -544 772 -597 841 -737 957 -217 180 -409 269
-803 372 -148 39 -280 48 -351 22z"/>
</g>
</svg>
