<svg xmlns="http://www.w3.org/2000/svg" width="2730.667" height="2730.667" version="1.0" viewBox="0 0 2048 2048"><path d="M0 1024v1024h2048V0H0v1024zm561.5-481.1c79 10.7 163.2 38.2 278.5 90.9 15.1 6.9 62.8 30.3 106 52l78.5 39.4 3-1.7c10.4-6.1 157.9-79.4 180.5-89.7 101.9-46.6 179.5-73.4 249.9-86.3 32.4-5.9 44.2-7 77.1-7 32.6.1 43.2 1.2 68 7.5 84.5 21.3 135.2 92.5 148.4 208 3.5 30.5 3.6 41 3.6 398.9v356.4l-21.2-.7c-41.5-1.3-72.1-6.6-107-18.5-53-18.1-98.4-47-138.3-88.2-16.5-17-26.2-29.1-40-49.9-26.8-40.1-45-86-53-133.4-4-24-4.5-34.6-5.5-117.6-.9-79.3-1.6-96.1-4.5-117.1-6.5-46.1-21.2-54.8-59-35-11.5 6.1-30.6 17.9-46 28.6-4.9 3.4-27 18.8-49 34.1-69.7 48.4-114.9 77.9-176 114.5-26.1 15.7-31.3 18.5-33 17.6-1.1-.5-12.3-7.1-25-14.5-54.4-32.1-110.9-68.9-186.3-121.5-58.4-40.6-75.9-52-92.7-60.2-17.2-8.4-25.2-10.1-34.6-7.5-3.9 1.1-10.6 7.5-13.3 12.8-2.7 5.2-6.4 19.4-8 30.8-3.2 22.3-3.8 39.8-4.6 120.9-.7 66.8-1.1 85.4-2.4 95.5-5.4 41.7-16.3 78.3-33.9 113.8-17.6 35.5-37.7 63.3-66.7 92.3-27.3 27.3-55 47.5-88.1 64.3-52.3 26.4-103.7 38.4-165.2 38.6H293l.3-366.3c.3-403.7-.2-371.4 6.3-410.7 13.2-79.6 46.1-135.9 96.9-166 23-13.6 47.3-21.6 79.5-26 19.5-2.6 62.7-2.2 85.5.9zm495 792.2c23.2 1.9 44.1 6.6 55.7 12.5 13.6 6.9 17.1 16.3 13.2 35-7.9 38.4-46.6 97.5-77.7 118.6-15 10.2-24.9 11.8-37.1 6-9.4-4.4-18.6-11.5-28.7-21.9-36.5-37.8-65.6-96.9-60-121.8 1.6-7 5.1-11.2 12.8-15.2 15.8-8.4 41.6-13.2 76.7-14.2 23-.7 26.1-.6 45.1 1z"/></svg>