<?xml version="1.0" standalone="no"?>
<!DOCTYPE svg PUBLIC "-//W3C//DTD SVG 20010904//EN"
 "http://www.w3.org/TR/2001/REC-SVG-20010904/DTD/svg10.dtd">
<svg version="1.0" xmlns="http://www.w3.org/2000/svg"
 width="2048.000000pt" height="2048.000000pt" viewBox="0 0 2048.000000 2048.000000"
 preserveAspectRatio="xMidYMid meet">
<metadata>
Created by potrace 1.14, written by Peter Selinger 2001-2017
</metadata>
<g transform="translate(0.000000,2048.000000) scale(0.100000,-0.100000)"
fill="#000000" stroke="none">
<path d="M0 10240 l0 -10240 10240 0 10240 0 0 10240 0 10240 -10240 0 -10240
0 0 -10240z m5615 4811 c790 -107 1632 -382 2785 -909 151 -69 628 -303 1060
-520 l785 -394 30 17 c104 61 1579 794 1805 897 1019 466 1795 734 2499 863
324 59 442 70 771 70 326 -1 432 -12 680 -75 845 -213 1352 -925 1484 -2080
35 -305 36 -410 36 -3989 l0 -3564 -212 7 c-415 13 -721 66 -1070 185 -530
181 -984 470 -1383 882 -165 170 -262 291 -400 499 -268 401 -450 860 -530
1334 -40 240 -45 346 -55 1176 -9 793 -16 961 -45 1171 -65 461 -212 548 -590
350 -115 -61 -306 -179 -460 -286 -49 -34 -270 -188 -490 -341 -697 -484
-1149 -779 -1760 -1145 -261 -157 -313 -185 -330 -176 -11 5 -123 71 -250 145
-544 321 -1109 689 -1863 1215 -584 406 -759 520 -927 602 -172 84 -252 101
-346 75 -39 -11 -106 -75 -133 -128 -27 -52 -64 -194 -80 -308 -32 -223 -38
-398 -46 -1209 -7 -668 -11 -854 -24 -955 -54 -417 -163 -783 -339 -1138 -176
-355 -377 -633 -667 -923 -273 -273 -550 -475 -881 -643 -523 -264 -1037 -384
-1652 -386 l-87 0 3 3663 c3 4037 -2 3714 63 4107 132 796 461 1359 969 1660
230 136 473 216 795 260 195 26 627 22 855 -9z m4950 -7922 c232 -19 441 -66
557 -125 136 -69 171 -163 132 -350 -79 -384 -466 -975 -777 -1186 -150 -102
-249 -118 -371 -60 -94 44 -186 115 -287 219 -365 378 -656 969 -600 1218 16
70 51 112 128 152 158 84 416 132 767 142 230 7 261 6 451 -10z"/>
</g>
</svg>
