<svg xmlns="http://www.w3.org/2000/svg" width="258" height="198" fill="none"><g fill="#000" clip-path="url(#a)"><path d="M165.269 24.098 188.481 0H0v24.098zm-1.754 71.254L253.556 2.71H220.74l-75.589 77.078 18.364 15.563Zm69.677 35.094c0 23.657-19.178 42.836-42.835 42.836-19.108 0-35.31-12.516-40.823-29.815l-3.375-10.591-19.296 19.295 1.763 4.193c10.123 24.085 33.942 41.018 61.731 41.018 36.968 0 66.936-29.968 66.936-66.936 0-24.481-13.36-45.678-32.803-57.327l-4.561-2.733-17.668 17.895 8.061 4.255c13.615 7.188 22.87 21.473 22.87 37.91M87.797 191.697V44.674H63.699v147.023z"/></g><defs><clipPath id="a"><path fill="#fff" d="M0 0h258v198H0z"/></clipPath></defs></svg>