<svg xmlns="http://www.w3.org/2000/svg" xmlns:xlink="http://www.w3.org/1999/xlink" width="160" zoomAndPan="magnify" viewBox="0 0 120 107.999999" height="144" preserveAspectRatio="xMidYMid meet" version="1.0"><defs><clipPath id="2883f94c1d"><path d="M 7 16.332031 L 112 16.332031 L 112 32 L 7 32 Z M 7 16.332031 " clip-rule="nonzero"/></clipPath><clipPath id="89c07de8e6"><path d="M 6.472656 16.332031 L 113.722656 16.332031 L 113.722656 91.332031 L 6.472656 91.332031 Z M 6.472656 16.332031 " clip-rule="nonzero"/></clipPath></defs><path fill="#eaeaec" d="M 106.386719 83.117188 L 11.796875 83.117188 C 9.183594 83.117188 7.066406 81 7.066406 78.386719 L 7.066406 29.558594 L 111.117188 29.558594 L 111.117188 78.386719 C 111.117188 81 109 83.117188 106.386719 83.117188 Z M 106.386719 83.117188 " fill-opacity="1" fill-rule="nonzero"/><g clip-path="url(#2883f94c1d)"><path fill="#5a8784" d="M 111.117188 31.363281 L 7.066406 31.363281 L 7.066406 21.652344 C 7.066406 19.039062 9.183594 16.921875 11.796875 16.921875 L 106.386719 16.921875 C 109 16.921875 111.117188 19.039062 111.117188 21.652344 Z M 111.117188 31.363281 " fill-opacity="1" fill-rule="nonzero"/></g><path fill="#625f81" d="M 101.175781 78.363281 L 92.441406 75.453125 C 91.5 75.140625 90.605469 76.035156 90.917969 76.976562 L 93.832031 85.710938 C 94.199219 86.808594 95.75 86.808594 96.113281 85.710938 L 96.777344 83.71875 L 100.992188 87.933594 C 101.65625 88.597656 102.734375 88.597656 103.398438 87.933594 C 104.0625 87.265625 104.0625 86.1875 103.398438 85.523438 L 99.1875 81.3125 L 101.179688 80.648438 C 102.273438 80.28125 102.273438 78.730469 101.175781 78.363281 Z M 101.175781 78.363281 " fill-opacity="1" fill-rule="nonzero"/><path fill="#26282b" d="M 106.722656 21.316406 C 106.492188 21.085938 106.117188 21.085938 105.886719 21.316406 L 103.898438 23.304688 L 101.90625 21.316406 C 101.675781 21.085938 101.300781 21.085938 101.070312 21.316406 C 100.839844 21.546875 100.839844 21.921875 101.070312 22.152344 L 103.0625 24.144531 L 101.070312 26.132812 C 100.839844 26.363281 100.839844 26.738281 101.070312 26.96875 C 101.1875 27.085938 101.339844 27.140625 101.488281 27.140625 C 101.640625 27.140625 101.792969 27.082031 101.910156 26.96875 L 103.898438 24.980469 L 105.886719 26.96875 C 106.003906 27.085938 106.152344 27.140625 106.304688 27.140625 C 106.457031 27.140625 106.609375 27.082031 106.722656 26.96875 C 106.953125 26.738281 106.953125 26.363281 106.722656 26.132812 L 104.734375 24.144531 L 106.722656 22.152344 C 106.953125 21.921875 106.953125 21.546875 106.722656 21.316406 Z M 106.722656 21.316406 " fill-opacity="1" fill-rule="nonzero"/><path fill="#26282b" d="M 94.265625 21.144531 L 14.832031 21.144531 C 13.175781 21.144531 11.832031 22.488281 11.832031 24.140625 C 11.832031 25.792969 13.175781 27.140625 14.832031 27.140625 L 94.265625 27.140625 C 95.921875 27.140625 97.265625 25.792969 97.265625 24.140625 C 97.265625 22.488281 95.921875 21.144531 94.265625 21.144531 Z M 94.265625 25.957031 L 14.832031 25.957031 C 13.828125 25.957031 13.015625 25.144531 13.015625 24.144531 C 13.015625 23.140625 13.828125 22.328125 14.832031 22.328125 L 94.265625 22.328125 C 95.269531 22.328125 96.082031 23.140625 96.082031 24.144531 C 96.082031 25.144531 95.269531 25.957031 94.265625 25.957031 Z M 94.265625 25.957031 " fill-opacity="1" fill-rule="nonzero"/><g clip-path="url(#89c07de8e6)"><path fill="#26282b" d="M 111.429688 19.976562 C 110.722656 17.859375 108.734375 16.332031 106.378906 16.332031 L 11.796875 16.332031 C 8.863281 16.332031 6.472656 18.722656 6.472656 21.65625 L 6.472656 78.386719 C 6.472656 80.113281 7.300781 81.652344 8.589844 82.621094 C 9.324219 84.726562 11.335938 86.230469 13.691406 86.230469 L 93.414062 86.230469 C 93.675781 86.679688 94.113281 86.996094 94.621094 87.09375 L 95.058594 88.417969 C 95.320312 89.164062 95.984375 89.648438 96.773438 89.648438 C 97.566406 89.648438 98.242188 89.164062 98.492188 88.417969 L 98.84375 87.339844 L 102.371094 90.863281 C 102.808594 91.300781 103.386719 91.539062 104.003906 91.539062 C 104.617188 91.539062 105.199219 91.300781 105.625 90.863281 C 106.523438 89.964844 106.523438 88.511719 105.625 87.613281 L 104.453125 86.441406 C 104.464844 86.371094 104.453125 86.300781 104.429688 86.226562 L 108.105469 86.226562 C 111.101562 86.226562 113.523438 83.800781 113.523438 80.808594 L 113.523438 24.246094 C 113.523438 22.507812 112.707031 20.96875 111.429688 19.976562 Z M 102.972656 87.519531 C 102.546875 87.945312 101.839844 87.945312 101.410156 87.519531 L 97.199219 83.308594 C 97.082031 83.1875 96.929688 83.128906 96.773438 83.128906 C 96.726562 83.128906 96.691406 83.128906 96.644531 83.140625 C 96.445312 83.191406 96.277344 83.34375 96.21875 83.53125 L 95.558594 85.519531 C 95.425781 85.910156 95.070312 85.945312 94.976562 85.945312 C 94.871094 85.945312 94.515625 85.910156 94.386719 85.519531 L 93.390625 82.527344 L 91.476562 76.789062 C 91.40625 76.566406 91.464844 76.328125 91.628906 76.164062 C 91.796875 75.996094 92.03125 75.9375 92.257812 76.023438 L 100.984375 78.929688 C 101.375 79.0625 101.410156 79.40625 101.410156 79.511719 C 101.410156 79.617188 101.375 79.960938 100.984375 80.089844 L 99 80.753906 C 98.808594 80.8125 98.65625 80.976562 98.609375 81.179688 C 98.5625 81.378906 98.621094 81.582031 98.761719 81.734375 L 102.972656 85.945312 C 103.1875 86.160156 103.304688 86.429688 103.304688 86.726562 C 103.304688 87.023438 103.1875 87.304688 102.972656 87.519531 Z M 110.519531 78.386719 C 110.519531 80.667969 108.664062 82.527344 106.378906 82.527344 L 101.234375 82.527344 L 100.277344 81.566406 L 101.363281 81.210938 C 102.109375 80.964844 102.59375 80.289062 102.59375 79.511719 C 102.59375 78.71875 102.109375 78.054688 101.363281 77.804688 L 92.625 74.898438 C 91.984375 74.683594 91.273438 74.835938 90.789062 75.324219 C 90.304688 75.808594 90.140625 76.515625 90.363281 77.167969 L 92.148438 82.527344 L 11.796875 82.527344 C 10.304688 82.527344 8.992188 81.734375 8.273438 80.539062 C 7.882812 79.910156 7.65625 79.167969 7.65625 78.386719 L 7.65625 21.65625 C 7.65625 19.371094 9.515625 17.515625 11.796875 17.515625 L 106.378906 17.515625 C 107.667969 17.515625 108.828125 18.105469 109.585938 19.039062 C 110.164062 19.75 110.519531 20.660156 110.519531 21.65625 Z M 110.519531 78.386719 " fill-opacity="1" fill-rule="nonzero"/></g></svg>