<svg xmlns="http://www.w3.org/2000/svg" xmlns:xlink="http://www.w3.org/1999/xlink" width="160" zoomAndPan="magnify" viewBox="0 0 120 107.999999" height="144" preserveAspectRatio="xMidYMid meet" version="1.0"><defs><filter x="0%" y="0%" width="100%" height="100%" id="7aa4207ad2"><feColorMatrix values="0 0 0 0 1 0 0 0 0 1 0 0 0 0 1 0 0 0 1 0" color-interpolation-filters="sRGB"/></filter><clipPath id="dfa6416ba7"><path d="M 28 63 L 84 63 L 84 98.488281 L 28 98.488281 Z M 28 63 " clip-rule="nonzero"/></clipPath><mask id="e8e9a6535e"><g filter="url(#7aa4207ad2)"><rect x="-12" width="144" fill="#000000" y="-10.8" height="129.599998" fill-opacity="0.6"/></g></mask><clipPath id="8903e16129"><path d="M 60 0.175781 L 71 0.175781 L 71 12 L 60 12 Z M 60 0.175781 " clip-rule="nonzero"/></clipPath><clipPath id="2dd76e7878"><path d="M 2 6 L 85.375 6 L 85.375 72 L 2 72 Z M 2 6 " clip-rule="nonzero"/></clipPath><clipPath id="e59b0e3503"><path d="M 57 0.175781 L 69 0.175781 L 69 12 L 57 12 Z M 57 0.175781 " clip-rule="nonzero"/></clipPath><clipPath id="0e3ee926fa"><path d="M 0.625 6 L 84 6 L 84 72 L 0.625 72 Z M 0.625 6 " clip-rule="nonzero"/></clipPath><clipPath id="091972d5db"><rect x="0" width="86" y="0" height="72"/></clipPath></defs><path fill="#5a8784" d="M 20.167969 49.695312 C 13.253906 42.78125 13.152344 31.363281 20.105469 24.492188 C 26.867188 17.804688 37.730469 17.703125 44.625 24.183594 L 42.722656 25.847656 C 42.011719 26.46875 42.359375 27.640625 43.296875 27.769531 L 53.292969 29.164062 C 53.957031 29.257812 54.550781 28.738281 54.546875 28.066406 L 54.496094 17.976562 C 54.492188 17.027344 53.375 16.527344 52.664062 17.148438 L 50.410156 19.121094 C 40.53125 9.269531 24.480469 9.277344 14.609375 19.148438 C 4.734375 29.023438 4.734375 45.097656 14.609375 54.976562 L 19.769531 60.132812 C 21.265625 61.628906 23.691406 61.628906 25.1875 60.132812 C 26.683594 58.636719 26.683594 56.210938 25.1875 54.714844 L 20.167969 49.695312 " fill-opacity="1" fill-rule="nonzero"/><path fill="#5a8784" d="M 105.375 19.199219 C 95.5 9.269531 79.390625 9.253906 69.496094 19.148438 L 59.96875 28.675781 C 58.472656 30.171875 58.472656 32.597656 59.96875 34.09375 C 61.464844 35.589844 63.890625 35.589844 65.386719 34.09375 L 74.914062 24.566406 C 81.804688 17.675781 93.015625 17.675781 99.90625 24.566406 C 106.796875 31.457031 106.796875 42.667969 99.90625 49.554688 L 91.316406 58.148438 L 89.296875 56.128906 C 88.628906 55.460938 87.484375 55.886719 87.417969 56.832031 L 86.691406 66.898438 C 86.644531 67.566406 87.203125 68.125 87.871094 68.078125 L 97.9375 67.351562 C 98.882812 67.285156 99.308594 66.140625 98.640625 65.46875 L 96.734375 63.566406 L 105.152344 55.148438 C 115.054688 45.246094 115.25 29.128906 105.375 19.199219 " fill-opacity="1" fill-rule="nonzero"/><g clip-path="url(#dfa6416ba7)"><path fill="#5a8784" d="M 82.320312 72.558594 C 80.824219 71.0625 78.398438 71.0625 76.902344 72.558594 L 59.96875 89.492188 L 38.285156 67.8125 L 40.097656 66 C 40.769531 65.328125 40.339844 64.183594 39.398438 64.117188 L 29.332031 63.390625 C 28.664062 63.34375 28.105469 63.902344 28.152344 64.574219 L 28.875 74.636719 C 28.945312 75.582031 30.089844 76.007812 30.757812 75.339844 L 32.867188 73.230469 L 57.257812 97.621094 C 58.007812 98.371094 58.988281 98.746094 59.96875 98.746094 C 60.949219 98.746094 61.929688 98.371094 62.675781 97.621094 L 82.320312 77.976562 C 83.816406 76.480469 83.816406 74.054688 82.320312 72.558594 " fill-opacity="1" fill-rule="nonzero"/></g><g mask="url(#e8e9a6535e)"><g transform="matrix(1, 0, 0, 1, 17, 18)"><g clip-path="url(#091972d5db)"><path fill="#625f81" d="M 26.507812 68.648438 L 26.507812 68.6875 C 26.507812 68.6875 26.5 68.695312 26.5 68.699219 Z M 26.507812 68.648438 " fill-opacity="1" fill-rule="nonzero"/><g clip-path="url(#8903e16129)"><path fill="#625f81" d="M 62.921875 8.699219 C 61.984375 9.574219 61.03125 10.429688 60.011719 11.226562 C 60.773438 10.179688 61.59375 9.191406 62.433594 8.230469 C 63.28125 7.261719 64.152344 6.324219 65.035156 5.402344 C 65.929688 4.488281 66.835938 3.578125 67.769531 2.703125 C 68.707031 1.824219 69.65625 0.964844 70.683594 0.175781 C 69.921875 1.222656 69.09375 2.203125 68.253906 3.171875 C 67.417969 4.140625 66.542969 5.078125 65.65625 6 C 64.765625 6.914062 63.859375 7.824219 62.921875 8.699219 Z M 62.921875 8.699219 " fill-opacity="1" fill-rule="nonzero"/></g><g clip-path="url(#2dd76e7878)"><path fill="#625f81" d="M 74.332031 28.941406 C 74.332031 28.941406 74.332031 28.941406 74.332031 28.949219 C 74.667969 28.941406 75.007812 28.9375 75.34375 28.9375 C 76.621094 28.949219 77.902344 28.972656 79.179688 29.046875 C 80.460938 29.117188 81.738281 29.21875 83.019531 29.394531 C 81.734375 29.570312 80.453125 29.660156 79.175781 29.71875 C 77.894531 29.78125 76.609375 29.792969 75.335938 29.800781 C 74.996094 29.792969 74.65625 29.789062 74.316406 29.78125 C 74.222656 33.496094 74.167969 37.222656 74.128906 40.929688 L 75.953125 40.972656 L 77.542969 41.007812 L 77.648438 41.007812 C 77.71875 41.011719 77.777344 41.019531 77.835938 41.03125 C 77.960938 41.046875 78.078125 41.082031 78.195312 41.140625 C 78.421875 41.253906 78.625 41.429688 78.753906 41.644531 C 78.882812 41.851562 78.953125 42.136719 78.953125 42.339844 L 78.957031 42.738281 L 79.058594 49.097656 C 79.09375 50.160156 79.074219 51.222656 79.035156 52.277344 C 79 53.339844 78.945312 54.402344 78.886719 55.457031 C 78.828125 56.515625 78.746094 57.574219 78.652344 58.625 L 78.503906 60.210938 L 78.464844 60.609375 L 78.441406 60.816406 C 78.421875 60.914062 78.375 60.984375 78.328125 61.039062 C 78.128906 61.273438 77.914062 61.390625 77.648438 61.535156 C 73.472656 61.835938 69.222656 62.011719 64.957031 62.175781 C 63.894531 62.199219 62.820312 62.265625 61.765625 62.265625 L 58.589844 62.234375 C 56.472656 62.21875 54.355469 62.164062 52.238281 62.09375 L 49.0625 61.960938 L 47.476562 61.882812 C 47.125 61.902344 46.664062 61.675781 46.488281 61.3125 C 46.386719 61.136719 46.347656 60.898438 46.359375 60.75 L 46.363281 60.351562 C 46.371094 59.625 46.382812 58.902344 46.386719 58.179688 L 46.359375 58.179688 C 44.871094 58.222656 43.386719 58.25 41.898438 58.273438 C 42.121094 59.929688 42.316406 61.59375 42.457031 63.257812 C 42.550781 64.160156 42.625 65.074219 42.679688 65.976562 C 42.703125 66.300781 42.71875 66.617188 42.742188 66.941406 C 44.050781 67.058594 45.359375 67.238281 46.65625 67.457031 C 47.324219 67.570312 47.988281 67.703125 48.644531 67.863281 C 48.972656 67.945312 49.304688 68.03125 49.625 68.136719 C 49.929688 68.261719 50.265625 68.355469 50.480469 68.652344 L 50.5 68.570312 L 50.523438 68.800781 L 50.523438 68.816406 L 50.53125 68.847656 C 50.523438 69.140625 50.328125 69.375 50.125 69.539062 C 49.917969 69.714844 49.683594 69.839844 49.449219 69.960938 C 48.980469 70.207031 48.46875 70.375 47.964844 70.542969 C 46.960938 70.871094 45.921875 71.105469 44.882812 71.304688 C 42.800781 71.707031 40.671875 71.824219 38.558594 71.769531 C 36.441406 71.695312 34.339844 71.457031 32.257812 71.160156 C 31.214844 71 30.167969 70.84375 29.136719 70.574219 C 28.625 70.433594 28.117188 70.285156 27.609375 70.0625 C 27.363281 69.949219 27.117188 69.828125 26.882812 69.640625 C 26.773438 69.539062 26.660156 69.441406 26.570312 69.300781 C 26.523438 69.230469 26.484375 69.148438 26.460938 69.066406 C 26.441406 69.023438 26.441406 68.972656 26.429688 68.929688 C 26.429688 68.90625 26.425781 68.871094 26.425781 68.832031 C 26.425781 68.800781 26.425781 68.769531 26.4375 68.722656 L 26.5 68.730469 C 26.5 68.71875 26.5 68.710938 26.507812 68.699219 C 26.507812 68.675781 26.511719 68.648438 26.523438 68.613281 C 26.648438 68.371094 26.832031 68.285156 26.988281 68.191406 C 27.148438 68.101562 27.316406 68.039062 27.480469 67.972656 C 27.808594 67.855469 28.144531 67.769531 28.480469 67.679688 C 29.140625 67.523438 29.8125 67.390625 30.492188 67.285156 C 31.765625 67.097656 33.042969 66.976562 34.316406 66.894531 C 34.539062 65.691406 34.773438 64.492188 34.9375 63.28125 C 35.175781 61.652344 35.296875 60.015625 35.421875 58.378906 C 34.328125 58.390625 33.238281 58.410156 32.140625 58.421875 C 29.769531 58.460938 27.398438 58.398438 25.027344 58.375 L 17.921875 58.273438 L 10.8125 58.121094 L 7.257812 58.039062 L 5.484375 58 L 5.039062 57.992188 C 4.878906 57.988281 4.675781 57.964844 4.5 57.90625 C 4.140625 57.789062 3.824219 57.558594 3.605469 57.253906 C 3.390625 56.953125 3.273438 56.5625 3.277344 56.226562 L 3.273438 55.339844 L 3.25 53.5625 L 3.214844 50.007812 L 3.078125 42.894531 C 2.867188 33.417969 2.996094 23.933594 3.277344 14.449219 C 3.277344 14.121094 3.390625 13.714844 3.605469 13.421875 C 3.824219 13.117188 4.140625 12.890625 4.5 12.773438 C 4.675781 12.707031 4.886719 12.691406 5.039062 12.683594 L 5.484375 12.671875 L 6.371094 12.65625 L 8.628906 12.59375 L 8.664062 10.828125 L 8.699219 8.898438 L 8.707031 8.417969 L 8.710938 8.164062 C 8.722656 8.011719 8.789062 7.859375 8.886719 7.742188 C 8.988281 7.625 9.128906 7.539062 9.28125 7.503906 C 9.46875 7.472656 9.492188 7.484375 9.585938 7.480469 L 10.066406 7.460938 C 15.207031 7.234375 20.359375 7.015625 25.515625 6.875 C 30.667969 6.84375 35.820312 6.933594 40.972656 7.140625 L 41.453125 7.15625 C 41.605469 7.15625 41.878906 7.234375 42.054688 7.363281 C 42.238281 7.496094 42.375 7.691406 42.445312 7.902344 C 42.480469 7.996094 42.492188 8.140625 42.492188 8.207031 L 42.496094 8.324219 L 42.503906 8.566406 L 42.515625 9.046875 L 42.574219 10.976562 L 42.601562 11.996094 C 43.558594 11.996094 44.515625 12.007812 45.476562 12.027344 C 46.945312 12.039062 48.40625 12.054688 49.871094 12.074219 C 50.589844 11.324219 51.292969 10.566406 51.972656 9.796875 L 51.925781 9.730469 L 52.160156 9.449219 C 52.359375 9.210938 52.683594 9.027344 53.011719 9 C 53.339844 8.964844 53.664062 9.058594 53.914062 9.214844 C 54.042969 9.304688 54.160156 9.398438 54.261719 9.507812 C 54.355469 9.621094 54.40625 9.695312 54.484375 9.789062 L 54.90625 10.320312 C 55.375 10.910156 55.808594 11.539062 56.238281 12.167969 C 57.394531 12.183594 58.539062 12.203125 59.695312 12.214844 L 66.804688 12.320312 L 70.363281 12.378906 L 72.140625 12.414062 L 72.585938 12.425781 C 72.730469 12.425781 72.996094 12.449219 73.191406 12.519531 C 73.601562 12.640625 73.964844 12.914062 74.210938 13.253906 C 74.464844 13.597656 74.597656 14.027344 74.597656 14.449219 L 74.585938 15.300781 L 74.585938 15.304688 C 75.242188 15.011719 75.90625 14.726562 76.5625 14.445312 C 78.007812 13.839844 79.457031 13.253906 80.921875 12.707031 C 82.390625 12.15625 83.855469 11.632812 85.371094 11.191406 C 83.996094 11.96875 82.59375 12.660156 81.179688 13.328125 C 79.765625 13.996094 78.335938 14.625 76.890625 15.242188 C 76.125 15.558594 75.347656 15.882812 74.570312 16.191406 L 74.558594 17.125 L 74.5 20.679688 L 74.363281 27.785156 C 74.351562 28.167969 74.34375 28.550781 74.332031 28.941406 Z M 74.332031 28.941406 " fill-opacity="1" fill-rule="nonzero"/></g><path fill="#ffffff" d="M 24.273438 68.648438 L 24.273438 68.6875 C 24.273438 68.6875 24.265625 68.695312 24.265625 68.699219 Z M 24.273438 68.648438 " fill-opacity="1" fill-rule="nonzero"/><path fill="#ffffff" d="M 65.074219 51.8125 C 64.96875 52.148438 64.613281 52.261719 64.328125 52.441406 L 62.980469 53.1875 L 62.757812 53.304688 L 62.558594 53.417969 C 61.378906 54.054688 60.164062 54.648438 58.949219 55.230469 L 57.128906 56.109375 C 56.847656 56.238281 56.4375 56.480469 56.414062 56.421875 C 56.304688 56.414062 56.222656 56.308594 56.222656 56.234375 L 56.25 54.332031 L 56.246094 53.386719 L 56.246094 53.203125 L 56.238281 52.320312 C 56.191406 50.980469 56.210938 49.644531 56.1875 48.300781 L 56.164062 47.296875 C 56.152344 46.867188 56.125 46.84375 56.234375 46.726562 C 56.28125 46.6875 56.351562 46.644531 56.421875 46.640625 C 56.503906 46.632812 56.539062 46.640625 56.71875 46.734375 L 57.628906 47.167969 C 58.84375 47.746094 60.070312 48.328125 61.261719 48.949219 C 62.453125 49.585938 63.621094 50.253906 64.789062 50.933594 C 63.632812 50.234375 62.488281 49.53125 61.355469 48.785156 C 60.222656 48.058594 59.078125 47.34375 57.953125 46.597656 L 57.101562 46.039062 C 56.996094 45.964844 56.730469 45.800781 56.460938 45.792969 C 56.199219 45.769531 55.921875 45.839844 55.699219 46 C 55.480469 46.144531 55.300781 46.386719 55.230469 46.65625 C 55.152344 46.972656 55.183594 47.074219 55.152344 47.261719 L 55.082031 48.269531 C 55.046875 48.945312 54.996094 49.621094 54.972656 50.300781 C 54.9375 50.976562 54.964844 51.648438 54.960938 52.335938 L 54.984375 53.214844 L 54.988281 53.417969 L 55.019531 54.367188 C 55.023438 54.707031 55.046875 55.042969 55.058594 55.382812 L 55.082031 55.886719 C 55.105469 56.078125 55.078125 56.167969 55.152344 56.507812 C 55.300781 57.09375 55.890625 57.480469 56.460938 57.433594 C 56.75 57.429688 57.042969 57.242188 57.136719 57.175781 L 57.566406 56.902344 L 59.265625 55.792969 L 62.652344 53.570312 L 63.0625 53.308594 L 63.257812 53.1875 L 64.359375 52.488281 C 64.625 52.308594 65 52.183594 65.105469 51.832031 C 65.199219 51.566406 65.121094 51.261719 64.929688 51.070312 C 65.105469 51.257812 65.175781 51.554688 65.074219 51.8125 Z M 65.074219 51.8125 " fill-opacity="1" fill-rule="nonzero"/><path fill="#ffffff" d="M 17.085938 11.910156 C 15.980469 11.832031 14.871094 11.839844 13.757812 11.839844 C 12.648438 11.867188 11.546875 11.984375 10.441406 12.121094 L 10.230469 12.144531 L 10.226562 12.324219 C 10.21875 12.390625 10.21875 12.441406 10.21875 12.507812 C 10.203125 12.820312 10.195312 13.136719 10.191406 13.445312 C 10.179688 13.984375 10.171875 14.527344 10.160156 15.066406 L 10.160156 15.125 C 10.15625 15.371094 10.160156 15.617188 10.160156 15.863281 C 10.167969 16.058594 10.167969 16.25 10.160156 16.4375 L 10.148438 17.816406 L 10.148438 18.027344 L 10.425781 18.09375 C 10.96875 18.214844 11.527344 18.292969 12.085938 18.328125 C 12.644531 18.359375 13.199219 18.371094 13.757812 18.339844 C 14.316406 18.324219 14.871094 18.265625 15.425781 18.1875 C 15.699219 18.144531 15.976562 18.09375 16.25 18.035156 C 16.539062 17.964844 16.765625 17.929688 17.089844 17.8125 L 17.121094 16.472656 L 17.109375 15.777344 L 17.109375 15.757812 C 17.113281 15.535156 17.132812 15.324219 17.148438 15.113281 L 17.148438 15.082031 C 17.183594 14.53125 17.242188 13.984375 17.332031 13.445312 C 17.371094 13.113281 17.429688 12.785156 17.488281 12.453125 L 17.5 12.378906 L 17.582031 11.96875 Z M 16.613281 12.277344 L 16.683594 12.367188 L 16.601562 12.371094 C 16.601562 12.34375 16.609375 12.308594 16.613281 12.277344 Z M 10.695312 12.378906 C 10.6875 12.414062 10.683594 12.460938 10.675781 12.496094 L 10.578125 12.496094 Z M 16.222656 17.707031 L 15.394531 17.6875 L 13.757812 17.640625 C 13.210938 17.613281 12.671875 17.582031 12.132812 17.546875 C 11.664062 17.519531 11.199219 17.484375 10.730469 17.472656 L 10.769531 17.730469 L 10.496094 17.453125 C 10.570312 17.453125 10.648438 17.460938 10.722656 17.464844 L 10.554688 16.398438 C 10.523438 16.210938 10.496094 16.035156 10.472656 15.847656 C 10.441406 15.601562 10.425781 15.351562 10.414062 15.105469 L 10.414062 15.046875 C 10.402344 14.507812 10.4375 13.96875 10.511719 13.429688 C 10.542969 13.148438 10.589844 12.867188 10.640625 12.582031 C 11.132812 12.601562 11.621094 12.625 12.109375 12.640625 C 12.65625 12.65625 13.199219 12.636719 13.746094 12.65625 C 14.679688 12.714844 15.605469 12.773438 16.539062 12.785156 C 16.515625 12.996094 16.503906 13.207031 16.492188 13.417969 C 16.460938 13.960938 16.46875 14.507812 16.496094 15.046875 L 16.496094 15.078125 C 16.515625 15.292969 16.539062 15.523438 16.574219 15.734375 L 16.578125 15.753906 L 16.703125 16.367188 L 17.019531 17.746094 C 16.796875 17.695312 16.480469 17.71875 16.222656 17.707031 Z M 16.222656 17.707031 " fill-opacity="1" fill-rule="nonzero"/><path fill="#ffffff" d="M 17.085938 22.246094 C 15.980469 22.171875 14.871094 22.175781 13.757812 22.175781 C 12.648438 22.207031 11.546875 22.324219 10.441406 22.457031 L 10.230469 22.484375 L 10.226562 22.664062 C 10.179688 23.578125 10.179688 24.496094 10.15625 25.398438 C 10.144531 25.855469 10.167969 26.308594 10.15625 26.765625 L 10.144531 28.152344 L 10.144531 28.363281 L 10.417969 28.425781 C 10.964844 28.550781 11.523438 28.625 12.078125 28.660156 C 12.636719 28.683594 13.195312 28.703125 13.75 28.671875 C 14.308594 28.65625 14.867188 28.597656 15.417969 28.519531 C 15.695312 28.480469 15.96875 28.425781 16.246094 28.367188 C 16.53125 28.296875 16.761719 28.261719 17.085938 28.144531 L 17.113281 26.808594 L 17.101562 26.078125 C 17.109375 25.851562 17.125 25.632812 17.144531 25.410156 C 17.195312 24.523438 17.324219 23.644531 17.484375 22.78125 L 17.578125 22.289062 Z M 16.503906 25.398438 C 16.519531 25.628906 16.542969 25.863281 16.578125 26.085938 L 16.707031 26.714844 L 17.019531 28.085938 C 16.796875 28.039062 16.480469 28.0625 16.222656 28.050781 L 15.394531 28.03125 L 13.757812 27.972656 C 13.210938 27.949219 12.671875 27.925781 12.132812 27.878906 C 11.664062 27.855469 11.199219 27.820312 10.730469 27.808594 L 10.769531 28.066406 L 10.496094 27.792969 C 10.570312 27.792969 10.648438 27.796875 10.722656 27.804688 L 10.554688 26.738281 C 10.484375 26.289062 10.417969 25.84375 10.417969 25.394531 C 10.402344 24.566406 10.496094 23.742188 10.648438 22.929688 C 10.582031 22.929688 10.53125 22.921875 10.464844 22.921875 L 10.683594 22.710938 C 10.671875 22.789062 10.652344 22.851562 10.648438 22.929688 C 11.140625 22.945312 11.628906 22.96875 12.113281 22.988281 C 12.660156 23 13.207031 22.980469 13.75 23 C 14.691406 23.0625 15.613281 23.117188 16.542969 23.121094 C 16.5625 22.953125 16.585938 22.78125 16.613281 22.613281 L 17.027344 23.128906 C 16.867188 23.128906 16.703125 23.128906 16.550781 23.121094 C 16.46875 23.886719 16.460938 24.648438 16.503906 25.398438 Z M 16.503906 25.398438 " fill-opacity="1" fill-rule="nonzero"/><path fill="#ffffff" d="M 17.085938 32.59375 C 15.980469 32.515625 14.871094 32.515625 13.757812 32.523438 C 12.648438 32.550781 11.546875 32.667969 10.441406 32.804688 L 10.230469 32.828125 L 10.226562 33.007812 C 10.179688 33.925781 10.179688 34.832031 10.15625 35.742188 C 10.144531 36.195312 10.167969 36.652344 10.15625 37.109375 L 10.144531 38.496094 L 10.144531 38.707031 L 10.417969 38.769531 C 10.964844 38.894531 11.523438 38.96875 12.078125 39.003906 C 12.636719 39.027344 13.195312 39.046875 13.75 39.015625 C 14.308594 39 14.867188 38.941406 15.417969 38.859375 C 15.695312 38.824219 15.96875 38.769531 16.246094 38.710938 C 16.53125 38.640625 16.761719 38.605469 17.085938 38.488281 L 17.113281 37.152344 L 17.101562 36.421875 C 17.109375 36.195312 17.125 35.976562 17.144531 35.753906 C 17.195312 34.867188 17.324219 33.988281 17.484375 33.121094 L 17.578125 32.640625 Z M 16.503906 35.742188 C 16.519531 35.972656 16.542969 36.207031 16.578125 36.429688 L 16.707031 37.058594 L 17.019531 38.425781 C 16.796875 38.382812 16.480469 38.40625 16.222656 38.394531 L 15.394531 38.371094 L 13.757812 38.324219 C 13.210938 38.300781 12.671875 38.277344 12.132812 38.230469 C 11.664062 38.207031 11.195312 38.171875 10.730469 38.15625 L 10.769531 38.414062 L 10.496094 38.136719 C 10.570312 38.144531 10.648438 38.144531 10.722656 38.148438 L 10.554688 37.082031 C 10.484375 36.640625 10.417969 36.195312 10.417969 35.742188 C 10.402344 34.914062 10.496094 34.089844 10.648438 33.273438 C 10.582031 33.273438 10.53125 33.265625 10.464844 33.265625 L 10.683594 33.0625 C 10.671875 33.132812 10.660156 33.203125 10.648438 33.273438 C 11.140625 33.296875 11.628906 33.320312 12.113281 33.335938 C 12.660156 33.347656 13.207031 33.332031 13.75 33.347656 C 14.691406 33.414062 15.613281 33.464844 16.542969 33.472656 C 16.5625 33.300781 16.585938 33.132812 16.613281 32.960938 L 17.027344 33.476562 C 16.867188 33.476562 16.703125 33.476562 16.550781 33.472656 C 16.46875 34.230469 16.460938 34.992188 16.503906 35.742188 Z M 16.503906 35.742188 " fill-opacity="1" fill-rule="nonzero"/><path fill="#ffffff" d="M 17.085938 42.929688 C 15.980469 42.855469 14.871094 42.855469 13.757812 42.855469 C 12.648438 42.890625 11.546875 43.007812 10.441406 43.136719 L 10.230469 43.160156 L 10.226562 43.347656 C 10.179688 44.257812 10.179688 45.171875 10.15625 46.082031 C 10.144531 46.535156 10.167969 46.984375 10.15625 47.449219 L 10.144531 48.832031 L 10.144531 49.042969 L 10.417969 49.109375 C 10.964844 49.226562 11.523438 49.308594 12.078125 49.339844 C 12.636719 49.367188 13.195312 49.378906 13.75 49.355469 C 14.308594 49.332031 14.867188 49.28125 15.417969 49.199219 C 15.695312 49.160156 15.96875 49.109375 16.246094 49.042969 C 16.53125 48.980469 16.761719 48.945312 17.085938 48.828125 L 17.113281 47.488281 L 17.101562 46.761719 C 17.109375 46.535156 17.125 46.316406 17.144531 46.09375 C 17.195312 45.203125 17.324219 44.328125 17.484375 43.457031 L 17.578125 42.976562 Z M 16.503906 46.082031 C 16.519531 46.308594 16.542969 46.546875 16.578125 46.769531 L 16.707031 47.394531 L 17.019531 48.761719 C 16.796875 48.722656 16.480469 48.746094 16.222656 48.734375 L 15.394531 48.710938 L 13.757812 48.664062 C 13.210938 48.632812 12.671875 48.617188 12.132812 48.570312 C 11.664062 48.546875 11.199219 48.511719 10.730469 48.492188 L 10.769531 48.75 L 10.496094 48.476562 C 10.570312 48.476562 10.648438 48.480469 10.722656 48.488281 L 10.554688 47.417969 C 10.484375 46.980469 10.417969 46.527344 10.417969 46.082031 C 10.402344 45.253906 10.496094 44.425781 10.648438 43.613281 C 10.582031 43.613281 10.53125 43.605469 10.464844 43.605469 L 10.683594 43.398438 C 10.671875 43.46875 10.660156 43.539062 10.648438 43.613281 C 11.140625 43.636719 11.628906 43.660156 12.113281 43.671875 C 12.660156 43.6875 13.207031 43.664062 13.75 43.6875 C 14.691406 43.753906 15.613281 43.804688 16.542969 43.8125 C 16.5625 43.636719 16.585938 43.46875 16.613281 43.292969 L 17.027344 43.816406 C 16.867188 43.816406 16.703125 43.816406 16.550781 43.8125 C 16.46875 44.566406 16.460938 45.332031 16.503906 46.082031 Z M 16.503906 46.082031 " fill-opacity="1" fill-rule="nonzero"/><path fill="#ffffff" d="M 23.214844 13.316406 C 23.632812 13.347656 24.683594 13.394531 25.539062 13.394531 C 26.15625 13.394531 26.671875 13.371094 26.796875 13.292969 L 27.289062 12.996094 L 23.222656 12.996094 C 22.035156 12.917969 19.296875 12.988281 19.179688 12.996094 L 19.183594 13.316406 Z M 23.214844 13.316406 " fill-opacity="1" fill-rule="nonzero"/><path fill="#ffffff" d="M 25.664062 14.90625 C 24.109375 14.894531 22.339844 14.90625 21.152344 14.917969 L 21.070312 14.917969 C 19.953125 14.925781 19.179688 14.9375 19.179688 14.9375 L 19.179688 15.257812 L 27.902344 15.257812 C 29.199219 15.300781 31.261719 15.335938 32.914062 15.335938 C 34.230469 15.335938 35.292969 15.3125 35.507812 15.253906 L 36.695312 14.9375 L 27.921875 14.9375 C 27.664062 14.929688 27.363281 14.925781 27.042969 14.917969 Z M 25.664062 14.90625 " fill-opacity="1" fill-rule="nonzero"/><path fill="#ffffff" d="M 24.992188 16.875 C 23.296875 16.789062 19.226562 16.875 19.183594 16.875 L 19.191406 17.195312 C 19.230469 17.195312 23.292969 17.113281 24.976562 17.195312 C 25.699219 17.230469 27.160156 17.273438 28.339844 17.273438 C 29.199219 17.273438 29.90625 17.25 30.070312 17.183594 L 29.945312 16.886719 C 29.683594 16.984375 26.84375 16.960938 24.992188 16.875 Z M 24.992188 16.875 " fill-opacity="1" fill-rule="nonzero"/><path fill="#ffffff" d="M 23.226562 24.214844 C 22.042969 24.132812 19.296875 24.207031 19.183594 24.214844 L 19.195312 24.535156 C 19.226562 24.535156 22.042969 24.453125 23.210938 24.535156 C 23.601562 24.566406 24.664062 24.613281 25.539062 24.613281 C 26.148438 24.613281 26.671875 24.589844 26.796875 24.511719 L 26.636719 24.230469 C 26.429688 24.320312 24.582031 24.308594 23.226562 24.214844 Z M 23.226562 24.214844 " fill-opacity="1" fill-rule="nonzero"/><path fill="#ffffff" d="M 24.976562 38.753906 C 25.699219 38.789062 27.160156 38.828125 28.339844 38.828125 C 29.199219 38.828125 29.90625 38.804688 30.070312 38.742188 L 29.945312 38.441406 C 29.683594 38.542969 26.84375 38.519531 24.992188 38.429688 C 23.296875 38.347656 19.226562 38.429688 19.183594 38.429688 L 19.191406 38.753906 C 19.230469 38.753906 23.292969 38.671875 24.976562 38.753906 Z M 24.976562 38.753906 " fill-opacity="1" fill-rule="nonzero"/><path fill="#ffffff" d="M 23.210938 44.75 C 23.601562 44.777344 24.664062 44.824219 25.539062 44.824219 C 26.148438 44.824219 26.671875 44.800781 26.796875 44.726562 L 26.636719 44.445312 C 26.429688 44.527344 24.589844 44.515625 23.234375 44.425781 C 22.046875 44.34375 19.300781 44.421875 19.191406 44.425781 L 19.203125 44.75 C 19.21875 44.75 22.042969 44.671875 23.210938 44.75 Z M 23.210938 44.75 " fill-opacity="1" fill-rule="nonzero"/><path fill="#ffffff" d="M 19.183594 46.371094 L 19.191406 46.691406 C 19.253906 46.691406 25.371094 46.609375 27.910156 46.691406 C 29.210938 46.734375 31.273438 46.769531 32.925781 46.769531 C 34.242188 46.769531 35.304688 46.746094 35.519531 46.6875 L 35.480469 46.527344 L 35.4375 46.371094 C 35.054688 46.476562 30.8125 46.457031 27.925781 46.363281 C 25.375 46.285156 19.25 46.363281 19.183594 46.371094 Z M 19.183594 46.371094 " fill-opacity="1" fill-rule="nonzero"/><path fill="#ffffff" d="M 24.992188 48.304688 C 23.296875 48.222656 19.226562 48.304688 19.183594 48.304688 L 19.191406 48.628906 C 19.230469 48.628906 23.292969 48.546875 24.976562 48.628906 C 25.699219 48.664062 27.160156 48.703125 28.339844 48.703125 C 29.199219 48.703125 29.90625 48.679688 30.070312 48.617188 L 29.945312 48.316406 C 29.683594 48.410156 26.84375 48.386719 24.992188 48.304688 Z M 24.992188 48.304688 " fill-opacity="1" fill-rule="nonzero"/><g clip-path="url(#e59b0e3503)"><path fill="#ffffff" d="M 68.453125 0.175781 C 67.691406 1.222656 66.863281 2.203125 66.027344 3.171875 C 65.1875 4.140625 64.3125 5.078125 63.425781 6 C 62.535156 6.910156 61.625 7.824219 60.691406 8.699219 C 59.753906 9.574219 58.800781 10.429688 57.78125 11.226562 C 58.542969 10.179688 59.367188 9.191406 60.203125 8.230469 C 61.050781 7.261719 61.925781 6.324219 62.804688 5.402344 C 63.703125 4.488281 64.605469 3.578125 65.539062 2.703125 C 66.476562 1.828125 67.429688 0.972656 68.453125 0.175781 Z M 68.453125 0.175781 " fill-opacity="1" fill-rule="nonzero"/></g><g clip-path="url(#0e3ee926fa)"><path fill="#ffffff" d="M 73.109375 28.9375 C 72.773438 28.9375 72.433594 28.941406 72.097656 28.949219 C 72.097656 28.941406 72.097656 28.941406 72.097656 28.941406 C 72.109375 28.550781 72.117188 28.167969 72.128906 27.773438 L 72.261719 20.667969 L 72.320312 17.113281 L 72.332031 16.179688 C 73.113281 15.871094 73.886719 15.546875 74.65625 15.230469 C 76.09375 14.613281 77.527344 13.992188 78.945312 13.316406 C 80.359375 12.648438 81.761719 11.957031 83.136719 11.179688 C 81.621094 11.621094 80.148438 12.144531 78.6875 12.695312 C 77.214844 13.242188 75.769531 13.828125 74.328125 14.433594 C 73.671875 14.714844 73.007812 15 72.351562 15.292969 L 72.351562 15.289062 L 72.363281 14.4375 C 72.363281 14.015625 72.234375 13.585938 71.976562 13.242188 C 71.730469 12.902344 71.359375 12.628906 70.953125 12.507812 C 70.761719 12.4375 70.503906 12.414062 70.351562 12.414062 L 69.902344 12.402344 L 68.125 12.367188 L 64.570312 12.308594 L 57.457031 12.203125 C 56.304688 12.191406 55.160156 12.171875 54.003906 12.15625 C 53.574219 11.527344 53.140625 10.898438 52.671875 10.308594 L 52.25 9.777344 C 52.171875 9.683594 52.121094 9.609375 52.027344 9.496094 C 51.925781 9.386719 51.808594 9.292969 51.679688 9.203125 C 51.425781 9.046875 51.105469 8.953125 50.777344 8.988281 C 50.445312 9.015625 50.125 9.199219 49.925781 9.4375 L 49.691406 9.71875 L 49.738281 9.785156 C 49.054688 10.554688 48.347656 11.3125 47.636719 12.0625 C 46.167969 12.042969 44.707031 12.027344 43.242188 12.015625 C 42.28125 11.996094 41.324219 11.984375 40.367188 11.984375 L 40.335938 10.953125 L 40.277344 9.023438 L 40.265625 8.542969 L 40.261719 8.300781 L 40.253906 8.183594 C 40.253906 8.117188 40.242188 7.972656 40.207031 7.878906 C 40.136719 7.667969 40.003906 7.472656 39.820312 7.339844 C 39.644531 7.210938 39.375 7.132812 39.214844 7.132812 L 38.730469 7.128906 C 33.578125 6.914062 28.425781 6.828125 23.273438 6.863281 C 18.117188 7.003906 12.972656 7.222656 7.824219 7.449219 L 7.34375 7.46875 C 7.25 7.472656 7.226562 7.460938 7.039062 7.492188 C 6.890625 7.527344 6.746094 7.613281 6.644531 7.730469 C 6.546875 7.847656 6.488281 7.996094 6.46875 8.152344 L 6.464844 8.40625 L 6.457031 8.886719 L 6.421875 10.816406 L 6.386719 12.582031 L 4.128906 12.640625 L 3.242188 12.660156 L 2.796875 12.671875 C 2.644531 12.679688 2.433594 12.695312 2.257812 12.761719 C 1.898438 12.878906 1.582031 13.105469 1.367188 13.410156 C 1.148438 13.710938 1.035156 14.109375 1.035156 14.4375 C 0.753906 23.914062 0.625 33.402344 0.835938 42.882812 L 0.972656 49.996094 L 1.007812 53.550781 L 1.03125 55.328125 L 1.035156 56.214844 C 1.03125 56.550781 1.148438 56.949219 1.367188 57.242188 C 1.582031 57.546875 1.898438 57.777344 2.257812 57.894531 C 2.433594 57.953125 2.632812 57.976562 2.796875 57.980469 L 3.242188 57.988281 L 5.015625 58.027344 L 8.570312 58.109375 L 15.683594 58.261719 L 22.789062 58.363281 C 25.15625 58.386719 27.527344 58.457031 29.898438 58.410156 C 30.996094 58.398438 32.085938 58.378906 33.179688 58.367188 C 33.054688 60.003906 32.933594 61.640625 32.699219 63.269531 C 32.539062 64.480469 32.300781 65.679688 32.074219 66.882812 C 30.796875 66.964844 29.519531 67.085938 28.25 67.273438 C 27.574219 67.378906 26.90625 67.503906 26.238281 67.667969 C 25.902344 67.757812 25.570312 67.84375 25.242188 67.960938 C 25.082031 68.027344 24.910156 68.089844 24.746094 68.179688 C 24.589844 68.273438 24.40625 68.359375 24.285156 68.601562 C 24.273438 68.628906 24.265625 68.664062 24.265625 68.6875 C 24.261719 68.699219 24.261719 68.707031 24.261719 68.71875 L 24.195312 68.710938 C 24.183594 68.757812 24.183594 68.789062 24.183594 68.816406 C 24.183594 68.859375 24.191406 68.894531 24.191406 68.917969 C 24.203125 68.960938 24.203125 69.011719 24.21875 69.054688 C 24.242188 69.136719 24.285156 69.222656 24.332031 69.289062 C 24.417969 69.429688 24.53125 69.527344 24.640625 69.628906 C 24.875 69.816406 25.117188 69.9375 25.371094 70.050781 C 25.875 70.273438 26.382812 70.414062 26.894531 70.5625 C 27.921875 70.835938 28.972656 70.988281 30.015625 71.148438 C 32.097656 71.445312 34.207031 71.683594 36.316406 71.757812 C 38.4375 71.804688 40.558594 71.6875 42.644531 71.292969 C 43.6875 71.09375 44.71875 70.859375 45.722656 70.53125 C 46.226562 70.355469 46.734375 70.195312 47.207031 69.949219 C 47.441406 69.828125 47.675781 69.703125 47.882812 69.527344 C 48.089844 69.359375 48.28125 69.125 48.289062 68.835938 L 48.28125 68.804688 L 48.28125 68.789062 L 48.257812 68.558594 L 48.242188 68.640625 C 48.023438 68.34375 47.6875 68.25 47.382812 68.125 C 47.0625 68.019531 46.734375 67.933594 46.40625 67.851562 C 45.746094 67.699219 45.085938 67.558594 44.414062 67.445312 C 43.117188 67.226562 41.808594 67.046875 40.5 66.929688 C 40.484375 66.605469 40.464844 66.289062 40.4375 65.964844 C 40.378906 65.0625 40.308594 64.148438 40.214844 63.246094 C 40.074219 61.582031 39.878906 59.917969 39.65625 58.261719 C 41.148438 58.238281 42.632812 58.214844 44.117188 58.167969 L 44.121094 58.167969 C 44.117188 58.890625 44.105469 59.613281 44.097656 60.339844 L 44.09375 60.738281 C 44.082031 60.886719 44.121094 61.132812 44.222656 61.300781 C 44.402344 61.664062 44.859375 61.890625 45.214844 61.871094 L 46.796875 61.949219 L 49.972656 62.082031 C 52.089844 62.160156 54.207031 62.207031 56.328125 62.222656 L 59.5 62.253906 C 60.5625 62.253906 61.636719 62.1875 62.691406 62.164062 C 66.957031 62.007812 71.210938 61.824219 75.382812 61.523438 C 75.648438 61.382812 75.867188 61.265625 76.066406 61.027344 C 76.113281 60.96875 76.160156 60.902344 76.175781 60.804688 L 76.199219 60.597656 L 76.242188 60.199219 L 76.386719 58.613281 C 76.480469 57.558594 76.570312 56.496094 76.621094 55.445312 C 76.6875 54.382812 76.734375 53.320312 76.769531 52.265625 C 76.808594 51.203125 76.832031 50.140625 76.792969 49.085938 L 76.691406 42.726562 L 76.6875 42.328125 C 76.6875 42.121094 76.617188 41.832031 76.488281 41.632812 C 76.359375 41.417969 76.160156 41.242188 75.929688 41.128906 C 75.8125 41.070312 75.695312 41.035156 75.570312 41.019531 C 75.511719 41.007812 75.453125 41 75.382812 40.996094 L 75.277344 40.996094 L 73.6875 40.960938 L 71.863281 40.917969 C 71.898438 37.210938 71.957031 33.484375 72.050781 29.769531 C 72.390625 29.777344 72.730469 29.78125 73.074219 29.789062 C 74.351562 29.78125 75.636719 29.769531 76.910156 29.707031 C 78.195312 29.648438 79.472656 29.558594 80.753906 29.382812 C 79.46875 29.199219 78.1875 29.101562 76.914062 29.035156 C 75.660156 28.972656 74.386719 28.949219 73.109375 28.9375 Z M 71.1875 20.667969 L 71.277344 27.78125 L 71.292969 28.953125 C 71.292969 28.960938 71.292969 28.960938 71.292969 28.960938 C 70.730469 28.964844 70.167969 28.984375 69.597656 29.007812 L 69.597656 29 L 69.640625 21.761719 L 69.664062 18.550781 L 69.667969 17.203125 C 69.878906 17.121094 70.089844 17.054688 70.296875 16.972656 C 70.589844 16.867188 70.867188 16.753906 71.152344 16.644531 L 71.160156 17.113281 Z M 57.433594 13.550781 L 64.539062 13.632812 L 68.097656 13.675781 L 69.867188 13.679688 L 70.308594 13.6875 C 70.449219 13.6875 70.496094 13.6875 70.585938 13.710938 C 70.738281 13.75 70.890625 13.851562 70.988281 13.984375 C 71.089844 14.117188 71.140625 14.28125 71.148438 14.449219 L 71.152344 15.335938 L 71.160156 15.828125 L 71.160156 15.839844 C 70.789062 16.015625 70.414062 16.179688 70.042969 16.355469 C 69.902344 16.425781 69.761719 16.492188 69.621094 16.5625 C 69.621094 16.5625 69.621094 16.5625 69.621094 16.554688 L 69.621094 16.550781 C 69.511719 16.152344 69.210938 15.804688 68.824219 15.652344 C 68.570312 15.535156 68.277344 15.53125 68.019531 15.53125 L 67.222656 15.519531 L 65.621094 15.496094 L 62.410156 15.445312 L 55.9375 15.324219 C 55.609375 14.71875 55.265625 14.121094 54.894531 13.539062 C 55.738281 13.539062 56.585938 13.546875 57.433594 13.550781 Z M 50.570312 9.457031 C 50.683594 9.585938 50.789062 9.714844 50.894531 9.851562 C 51 9.839844 51.117188 9.867188 51.234375 9.9375 C 51.296875 9.972656 51.351562 10.019531 51.402344 10.074219 C 51.460938 10.132812 51.539062 10.230469 51.609375 10.3125 L 52.03125 10.828125 C 52.382812 11.269531 52.746094 11.710938 53.09375 12.15625 C 53.292969 12.40625 53.488281 12.667969 53.667969 12.917969 C 53.816406 13.117188 53.960938 13.324219 54.101562 13.523438 C 54.53125 14.109375 54.953125 14.703125 55.359375 15.300781 C 55.40625 15.371094 55.453125 15.433594 55.5 15.507812 C 55.734375 15.851562 55.960938 16.203125 56.1875 16.566406 C 56.34375 16.820312 56.503906 17.078125 56.65625 17.335938 L 56.660156 17.34375 L 56.726562 17.402344 L 56.691406 17.390625 C 56.71875 17.429688 56.75 17.484375 56.773438 17.53125 C 56.832031 17.613281 56.882812 17.699219 56.917969 17.78125 C 57.648438 18.996094 58.269531 20.257812 58.832031 21.550781 C 59.347656 22.757812 59.800781 24.003906 60.15625 25.261719 C 60.226562 25.488281 60.285156 25.714844 60.351562 25.945312 C 60.371094 26.003906 60.382812 26.054688 60.394531 26.113281 C 60.46875 26.367188 60.535156 26.628906 60.597656 26.890625 C 60.785156 27.621094 60.949219 28.355469 61.101562 29.082031 C 61.347656 30.367188 61.582031 31.652344 61.773438 32.949219 C 61.871094 33.59375 61.964844 34.242188 62.035156 34.890625 L 62.066406 35.132812 C 62.070312 35.203125 62.078125 35.25 62.070312 35.316406 C 62.066406 35.433594 62.035156 35.539062 61.976562 35.632812 C 61.90625 35.742188 61.820312 35.824219 61.699219 35.867188 C 61.582031 34.746094 61.390625 33.628906 61.171875 32.527344 C 60.933594 31.3125 60.644531 30.117188 60.308594 28.925781 C 60.226562 28.625 60.140625 28.328125 60.050781 28.039062 C 60.050781 28.027344 60.046875 28.019531 60.046875 28.015625 C 59.921875 27.558594 59.792969 27.101562 59.660156 26.636719 C 58.707031 23.527344 57.582031 20.445312 56.039062 17.546875 L 55.898438 17.40625 L 55.992188 17.464844 C 55.644531 16.800781 55.277344 16.152344 54.890625 15.511719 C 54.855469 15.433594 54.808594 15.363281 54.761719 15.292969 C 54.402344 14.691406 54.027344 14.105469 53.640625 13.523438 C 53.605469 13.464844 53.570312 13.417969 53.535156 13.363281 C 53.257812 12.953125 52.980469 12.558594 52.6875 12.160156 C 52.121094 11.375 51.515625 10.605469 50.894531 9.863281 C 50.851562 9.863281 50.8125 9.867188 50.777344 9.886719 C 50.710938 9.796875 50.640625 9.707031 50.570312 9.625 Z M 57.753906 18.203125 C 58.117188 18.429688 58.480469 18.675781 58.832031 18.945312 C 59.171875 19.21875 59.496094 19.519531 59.78125 19.859375 C 60.070312 20.199219 60.296875 20.59375 60.476562 21.003906 C 60.652344 21.414062 60.769531 21.847656 60.816406 22.292969 C 60.855469 22.734375 60.851562 23.179688 60.808594 23.609375 C 60.75 24.183594 60.664062 24.734375 60.523438 25.28125 C 60.316406 24.816406 60.105469 24.347656 59.929688 23.878906 C 59.625 23.121094 59.378906 22.347656 59.113281 21.574219 C 58.859375 20.792969 58.578125 20.023438 58.238281 19.273438 C 58.082031 18.914062 57.921875 18.558594 57.753906 18.203125 Z M 39.410156 39.273438 C 39.324219 38.734375 39.234375 38.203125 39.152344 37.667969 C 39.234375 37.648438 39.324219 37.636719 39.398438 37.621094 L 39.398438 37.859375 Z M 39.398438 44.738281 C 39.417969 44.847656 39.441406 44.953125 39.46875 45.066406 C 39.59375 45.722656 39.746094 46.375 39.890625 47.027344 C 39.898438 47.042969 39.898438 47.066406 39.902344 47.089844 L 39.914062 47.160156 L 39.9375 47.183594 L 41.023438 48.433594 C 41.375 48.855469 41.710938 49.292969 42.042969 49.726562 C 42.261719 50.007812 42.117188 50.453125 41.792969 50.550781 C 41.464844 50.625 41.078125 50.648438 40.726562 50.675781 L 39.738281 50.765625 L 39.644531 50.769531 L 39.515625 50.78125 L 39.097656 50.8125 C 38.957031 50.816406 38.851562 50.78125 38.757812 50.710938 C 38.671875 50.636719 38.625 50.535156 38.613281 50.445312 L 38.566406 49.925781 L 38.4375 48.84375 C 38.332031 48.125 38.226562 47.414062 38.085938 46.699219 C 37.808594 45.277344 37.484375 43.863281 37.296875 42.433594 C 37.105469 41.089844 36.988281 39.722656 36.875 38.367188 C 37.410156 38.253906 37.933594 38.132812 38.460938 38.015625 C 38.640625 39.464844 38.800781 40.925781 39.015625 42.375 C 39.132812 43.160156 39.246094 43.953125 39.398438 44.738281 Z M 39.398438 37.375 C 39.304688 37.390625 39.203125 37.414062 39.109375 37.4375 C 38.160156 37.644531 37.222656 37.867188 36.277344 38.089844 C 36.136719 38.121094 35.996094 38.160156 35.855469 38.195312 C 35.707031 37.84375 35.5625 37.496094 35.414062 37.140625 C 35.386719 37.039062 35.34375 36.941406 35.316406 36.839844 L 35.308594 36.839844 C 35.28125 36.734375 35.238281 36.628906 35.203125 36.523438 C 35.140625 36.328125 35.082031 36.136719 35.007812 35.953125 C 36.433594 35.261719 37.898438 34.632812 39.382812 34.089844 C 39.714844 33.964844 40.042969 33.847656 40.378906 33.738281 C 40.601562 33.652344 40.832031 33.582031 41.058594 33.507812 C 43.128906 32.828125 45.253906 32.292969 47.40625 31.910156 C 51.714844 31.136719 56.125 30.96875 60.511719 31.355469 C 60.585938 31.777344 60.652344 32.191406 60.714844 32.617188 C 60.867188 33.699219 60.980469 34.785156 61.078125 35.878906 C 59.050781 35.683594 57.007812 35.5625 54.964844 35.578125 C 52.800781 35.574219 50.636719 35.703125 48.480469 35.925781 C 46.328125 36.136719 44.1875 36.476562 42.0625 36.839844 C 41.46875 36.953125 40.871094 37.0625 40.277344 37.191406 C 39.980469 37.25 39.6875 37.308594 39.398438 37.375 Z M 28.972656 36.515625 C 28.882812 36.429688 28.800781 36.335938 28.726562 36.242188 C 28.625 36.128906 28.53125 36.011719 28.4375 35.894531 C 28.339844 35.761719 28.238281 35.613281 28.140625 35.472656 C 27.992188 35.191406 27.816406 34.910156 27.6875 34.597656 C 27.535156 34.289062 27.410156 33.960938 27.328125 33.617188 C 27.253906 33.320312 27.207031 33.007812 27.183594 32.703125 C 27.175781 32.664062 27.175781 32.617188 27.175781 32.574219 C 27.175781 32.570312 27.175781 32.570312 27.175781 32.570312 L 27.195312 32.570312 L 27.1875 32.5625 L 27.175781 32.5625 L 27.175781 32.558594 C 27.164062 32.371094 27.164062 32.1875 27.175781 32 C 27.242188 30.914062 27.65625 29.847656 28.308594 29 C 28.445312 28.8125 28.597656 28.644531 28.753906 28.480469 C 28.859375 28.367188 28.972656 28.257812 29.09375 28.15625 C 29.292969 27.980469 29.5 27.820312 29.71875 27.675781 C 29.839844 27.574219 29.976562 27.488281 30.121094 27.417969 C 30.261719 27.339844 30.398438 27.246094 30.542969 27.195312 L 30.636719 27.160156 L 30.503906 26.820312 C 30.519531 26.824219 30.539062 26.832031 30.5625 26.835938 L 30.691406 27.136719 L 30.644531 27.160156 L 30.691406 27.289062 C 31.195312 28.550781 31.6875 29.804688 32.222656 31.050781 C 33.042969 32.902344 33.878906 34.738281 34.792969 36.554688 C 34.839844 36.660156 34.898438 36.765625 34.949219 36.871094 C 35.015625 37.003906 35.082031 37.132812 35.152344 37.269531 C 35.308594 37.632812 35.46875 38.003906 35.621094 38.367188 L 35.507812 38.390625 L 35.269531 38.453125 C 35.109375 38.5 34.9375 38.519531 34.773438 38.546875 C 34.617188 38.578125 34.445312 38.59375 34.277344 38.605469 C 34.117188 38.613281 33.953125 38.636719 33.785156 38.628906 C 33.132812 38.640625 32.480469 38.542969 31.863281 38.355469 C 31.25 38.160156 30.667969 37.894531 30.132812 37.539062 C 29.835938 37.332031 29.558594 37.109375 29.289062 36.859375 C 29.234375 36.8125 29.175781 36.753906 29.117188 36.699219 C 29.117188 36.699219 29.117188 36.699219 29.117188 36.695312 C 29.070312 36.628906 29.023438 36.570312 28.972656 36.515625 Z M 28.53125 37.074219 C 28.457031 37.070312 28.390625 37.0625 28.320312 37.050781 C 28.074219 37.003906 27.851562 36.929688 27.632812 36.824219 C 27.628906 36.816406 27.621094 36.816406 27.617188 36.8125 C 27.433594 36.71875 27.277344 36.605469 27.117188 36.476562 C 26.914062 36.304688 26.71875 36.125 26.554688 35.914062 C 26.324219 35.636719 26.097656 35.316406 25.972656 34.949219 L 25.96875 34.949219 C 25.9375 34.84375 25.902344 34.738281 25.890625 34.621094 C 25.886719 34.605469 25.878906 34.585938 25.878906 34.5625 C 25.820312 34.046875 25.992188 33.507812 26.324219 33.136719 C 26.484375 32.949219 26.683594 32.808594 26.890625 32.703125 L 26.894531 32.703125 L 26.925781 32.761719 C 26.964844 34.070312 27.363281 35.375 28.097656 36.503906 C 28.128906 36.566406 28.164062 36.617188 28.199219 36.664062 C 28.238281 36.722656 28.285156 36.777344 28.320312 36.835938 C 28.390625 36.910156 28.460938 36.992188 28.53125 37.074219 Z M 40.511719 28.578125 L 39.394531 29.011719 L 33.273438 31.378906 C 33.183594 31.15625 33.097656 30.933594 33.007812 30.707031 C 32.785156 30.167969 32.558594 29.636719 32.328125 29.101562 C 34.347656 28.296875 36.3125 27.351562 38.203125 26.277344 C 38.570312 26.066406 38.945312 25.851562 39.3125 25.628906 C 39.722656 25.386719 40.121094 25.128906 40.519531 24.871094 C 41.585938 24.191406 42.621094 23.460938 43.628906 22.695312 C 46.421875 20.570312 48.960938 18.132812 51.226562 15.472656 C 51.308594 15.386719 51.375 15.300781 51.4375 15.222656 C 51.882812 14.703125 52.3125 14.167969 52.734375 13.628906 C 52.78125 13.6875 52.824219 13.746094 52.863281 13.804688 C 53.203125 14.285156 53.535156 14.773438 53.851562 15.269531 C 53.910156 15.347656 53.949219 15.421875 53.992188 15.5 C 54.5 16.273438 54.976562 17.066406 55.433594 17.875 L 55.492188 17.976562 L 55.5 17.976562 C 56.234375 19.277344 56.925781 20.609375 57.558594 21.976562 Z M 57.566406 21.988281 C 57.59375 22.058594 57.628906 22.117188 57.660156 22.1875 C 58.328125 23.660156 58.925781 25.175781 59.40625 26.71875 C 59.53125 27.105469 59.648438 27.492188 59.757812 27.878906 C 59.792969 27.992188 59.824219 28.105469 59.851562 28.222656 C 59.917969 28.472656 59.976562 28.738281 60.035156 28.996094 C 60.214844 29.777344 60.375 30.554688 60.511719 31.347656 C 58.515625 31.113281 56.503906 30.992188 54.488281 30.992188 C 52.101562 30.992188 49.707031 31.167969 47.335938 31.519531 C 44.992188 31.863281 42.671875 32.386719 40.394531 33.078125 C 40.054688 33.183594 39.714844 33.289062 39.382812 33.402344 C 37.800781 33.925781 36.253906 34.523438 34.734375 35.210938 C 34.453125 34.421875 34.160156 33.628906 33.855469 32.855469 L 33.855469 32.851562 L 39.386719 30.320312 L 40.488281 29.8125 Z M 46.347656 13.417969 C 46.09375 13.679688 45.828125 13.945312 45.578125 14.203125 C 45.277344 14.503906 44.980469 14.796875 44.679688 15.089844 C 43.269531 15.066406 41.855469 15.046875 40.449219 15.042969 C 40.449219 14.972656 40.441406 14.902344 40.441406 14.832031 L 40.402344 13.339844 C 42.378906 13.359375 44.355469 13.382812 46.347656 13.417969 Z M 44.328125 15.421875 C 43.207031 16.515625 42.054688 17.570312 40.878906 18.585938 C 40.75 18.699219 40.625 18.808594 40.488281 18.921875 C 40.484375 17.753906 40.472656 16.585938 40.449219 15.421875 C 41.738281 15.417969 43.03125 15.417969 44.328125 15.421875 Z M 40.5 20.03125 C 40.820312 19.773438 41.128906 19.5 41.441406 19.230469 C 42.832031 18.011719 44.1875 16.75 45.496094 15.433594 C 45.605469 15.328125 45.710938 15.222656 45.816406 15.113281 C 45.929688 15 46.039062 14.890625 46.152344 14.777344 C 46.59375 14.339844 47.019531 13.890625 47.441406 13.441406 C 47.859375 13 48.265625 12.546875 48.65625 12.097656 C 49.175781 11.523438 49.671875 10.929688 50.171875 10.335938 C 50.675781 10.921875 51.152344 11.527344 51.621094 12.144531 C 51.96875 12.59375 52.300781 13.054688 52.628906 13.515625 C 52.660156 13.550781 52.6875 13.597656 52.71875 13.632812 C 52.273438 14.179688 51.8125 14.714844 51.328125 15.234375 C 51.261719 15.324219 51.191406 15.40625 51.105469 15.488281 C 48.785156 18.058594 46.199219 20.375 43.382812 22.386719 C 42.449219 23.058594 41.5 23.691406 40.519531 24.289062 C 40.113281 24.542969 39.703125 24.789062 39.292969 25.023438 C 36.96875 26.355469 34.523438 27.488281 32.003906 28.398438 C 31.792969 27.9375 31.59375 27.46875 31.382812 27.007812 L 31.277344 26.773438 C 31.390625 26.703125 31.5 26.636719 31.613281 26.558594 C 31.78125 26.453125 31.945312 26.347656 32.117188 26.238281 C 33.570312 25.324219 34.992188 24.332031 36.371094 23.304688 C 37.328125 22.589844 38.277344 21.867188 39.203125 21.117188 C 39.640625 20.746094 40.074219 20.394531 40.5 20.03125 Z M 6.632812 22.40625 L 6.722656 18.550781 C 6.738281 17.675781 6.757812 16.796875 6.792969 15.921875 C 6.804688 15.671875 6.808594 15.410156 6.828125 15.160156 C 6.828125 15.007812 6.839844 14.855469 6.84375 14.703125 L 6.910156 13.441406 L 6.957031 12.578125 L 7.046875 10.847656 L 7.144531 8.917969 L 7.167969 8.441406 L 7.179688 8.210938 C 7.179688 8.207031 7.1875 8.199219 7.191406 8.199219 C 7.074219 8.1875 7.585938 8.195312 7.859375 8.1875 L 23.273438 8.035156 C 28.402344 8.070312 33.535156 8.234375 38.664062 8.5 L 38.882812 8.511719 L 38.875 8.363281 L 38.875 8.246094 C 38.875 8.253906 38.882812 8.292969 38.886719 8.3125 C 38.90625 8.375 38.945312 8.429688 39 8.464844 C 39.035156 8.5 39.144531 8.53125 39.144531 8.53125 L 38.882812 8.519531 L 38.882812 8.613281 L 38.898438 9.09375 L 38.945312 11.015625 L 38.976562 12.007812 L 39.011719 13.335938 L 39.050781 14.867188 C 39.050781 14.925781 39.058594 14.984375 39.058594 15.042969 C 39.0625 15.175781 39.0625 15.304688 39.070312 15.445312 C 39.117188 16.980469 39.144531 18.515625 39.167969 20.046875 C 38.097656 20.949219 37.011719 21.824219 35.894531 22.675781 C 34.269531 23.910156 32.617188 25.082031 30.914062 26.21875 C 29.882812 26.207031 28.824219 26.183594 27.902344 26.15625 C 25.351562 26.074219 19.230469 26.15625 19.167969 26.15625 L 19.167969 26.476562 C 19.230469 26.476562 25.347656 26.394531 27.886719 26.476562 C 28.539062 26.496094 29.382812 26.511719 30.261719 26.523438 L 30.199219 26.558594 C 30.039062 26.636719 29.894531 26.753906 29.746094 26.847656 C 29.59375 26.941406 29.449219 27.046875 29.3125 27.164062 C 28.941406 27.453125 28.613281 27.792969 28.332031 28.164062 C 27.3125 28.164062 25.984375 28.140625 24.96875 28.085938 C 23.269531 28.003906 19.203125 28.085938 19.160156 28.085938 L 19.167969 28.410156 C 19.203125 28.410156 23.269531 28.328125 24.945312 28.410156 C 25.628906 28.445312 26.964844 28.480469 28.097656 28.484375 C 28.027344 28.574219 27.972656 28.660156 27.914062 28.75 C 27.328125 29.71875 26.988281 30.808594 26.914062 31.917969 C 26.914062 31.917969 26.914062 31.917969 26.90625 31.917969 C 26.90625 31.917969 26.90625 31.917969 26.902344 31.910156 L 26.890625 31.910156 L 26.882812 31.917969 L 26.871094 31.921875 L 26.847656 31.933594 L 26.789062 31.964844 L 26.691406 32.027344 C 26.617188 32.0625 26.558594 32.121094 26.496094 32.167969 C 26.25 32.371094 26.0625 32.628906 25.933594 32.898438 C 25.65625 33.4375 25.597656 34.011719 25.597656 34.582031 L 25.597656 34.621094 C 24.90625 34.628906 23.972656 34.605469 23.203125 34.546875 C 22.019531 34.46875 19.273438 34.546875 19.15625 34.546875 L 19.167969 34.867188 C 19.195312 34.867188 22.011719 34.792969 23.179688 34.867188 C 23.578125 34.898438 24.636719 34.949219 25.503906 34.949219 L 25.609375 34.949219 C 25.644531 35.402344 25.738281 35.867188 25.972656 36.277344 C 26.007812 36.339844 26.050781 36.398438 26.089844 36.457031 C 23.203125 36.433594 19.203125 36.480469 19.15625 36.488281 L 19.15625 36.8125 C 19.203125 36.8125 23.472656 36.753906 26.367188 36.789062 C 26.65625 37.070312 27.007812 37.28125 27.382812 37.398438 C 27.679688 37.484375 27.992188 37.515625 28.285156 37.472656 C 28.4375 37.460938 28.585938 37.414062 28.71875 37.363281 C 28.730469 37.355469 28.742188 37.351562 28.753906 37.351562 C 30.515625 39.109375 33.4375 39.652344 35.613281 38.4375 L 35.648438 38.523438 L 35.765625 38.496094 C 35.941406 38.449219 36.113281 38.402344 36.289062 38.359375 C 36.566406 39.726562 36.824219 41.089844 37.015625 42.46875 C 37.226562 43.898438 37.308594 45.355469 37.4375 46.792969 C 37.492188 47.519531 37.585938 48.234375 37.683594 48.949219 L 37.859375 50.023438 L 37.972656 50.582031 C 38.039062 50.835938 38.21875 51.050781 38.4375 51.167969 C 38.648438 51.292969 38.917969 51.316406 39.132812 51.261719 L 39.480469 51.179688 L 39.5 53.226562 L 36.316406 53.210938 C 35.390625 53.210938 34.476562 53.203125 33.546875 53.191406 L 31.253906 53.121094 L 23.152344 52.941406 C 20.421875 52.863281 17.695312 52.847656 14.960938 52.800781 C 12.402344 52.765625 9.855469 52.699219 7.304688 52.699219 C 7.308594 52.757812 7.308594 52.804688 7.308594 52.859375 L 6.925781 52.851562 L 6.757812 52.695312 C 6.9375 52.695312 7.117188 52.695312 7.296875 52.699219 C 6.945312 42.609375 6.359375 32.511719 6.632812 22.40625 Z M 24.636719 68.671875 L 24.640625 68.707031 C 24.640625 68.71875 24.636719 68.730469 24.628906 68.746094 Z M 47.832031 69.457031 C 47.628906 69.609375 47.402344 69.746094 47.167969 69.851562 C 46.691406 70.054688 46.1875 70.207031 45.675781 70.316406 C 44.65625 70.539062 43.617188 70.667969 42.574219 70.753906 C 40.488281 70.90625 38.414062 70.996094 36.316406 71.058594 C 34.234375 71.125 32.128906 71.140625 30.050781 70.882812 C 29.007812 70.761719 27.980469 70.550781 26.984375 70.261719 C 26.59375 70.15625 26.226562 70.015625 25.867188 69.84375 C 26.300781 69.960938 26.738281 70.054688 27.171875 70.136719 C 28.179688 70.332031 29.199219 70.457031 30.214844 70.550781 C 32.257812 70.742188 34.300781 70.835938 36.339844 70.824219 C 38.382812 70.800781 40.429688 70.714844 42.457031 70.421875 C 43.464844 70.28125 44.480469 70.125 45.476562 69.914062 C 45.980469 69.804688 46.480469 69.703125 46.972656 69.558594 C 47.214844 69.480469 47.464844 69.417969 47.699219 69.316406 C 47.820312 69.265625 47.9375 69.207031 48.046875 69.128906 C 48.082031 69.101562 48.128906 69.066406 48.164062 69.03125 C 48.105469 69.195312 47.984375 69.339844 47.832031 69.457031 Z M 40.640625 69.089844 L 41.007812 68.996094 L 40.960938 68.636719 C 40.914062 68.308594 40.855469 67.980469 40.800781 67.652344 C 41.996094 67.664062 43.195312 67.675781 44.386719 67.769531 C 45.054688 67.816406 45.722656 67.875 46.382812 67.996094 C 46.710938 68.066406 47.042969 68.121094 47.359375 68.226562 C 47.664062 68.332031 48.019531 68.441406 48.1875 68.695312 L 48.195312 68.699219 L 48.199219 68.710938 L 48.207031 68.789062 C 48.160156 69 47.878906 69.117188 47.664062 69.210938 C 47.429688 69.304688 47.191406 69.371094 46.9375 69.429688 C 46.445312 69.539062 45.953125 69.628906 45.441406 69.675781 C 44.4375 69.78125 43.421875 69.828125 42.414062 69.855469 C 40.382812 69.886719 38.367188 69.921875 36.339844 69.898438 C 34.324219 69.878906 32.300781 69.855469 30.285156 69.722656 C 29.28125 69.652344 28.269531 69.574219 27.277344 69.441406 C 26.777344 69.375 26.289062 69.292969 25.804688 69.1875 C 25.570312 69.140625 25.328125 69.078125 25.109375 68.996094 C 25.003906 68.960938 24.898438 68.90625 24.8125 68.859375 C 24.730469 68.824219 24.695312 68.757812 24.6875 68.765625 L 24.625 68.757812 L 24.625 68.753906 L 24.628906 68.746094 C 24.730469 68.605469 25.082031 68.460938 25.375 68.378906 C 25.6875 68.285156 26.015625 68.226562 26.335938 68.167969 C 26.996094 68.054688 27.65625 67.980469 28.320312 67.925781 C 29.496094 67.808594 30.667969 67.75 31.847656 67.703125 L 31.71875 68.636719 L 31.660156 69.011719 L 32.046875 69.101562 C 33.449219 69.433594 34.890625 69.617188 36.339844 69.617188 C 37.796875 69.609375 39.238281 69.441406 40.640625 69.089844 Z M 39.960938 66.039062 C 40.007812 66.324219 40.074219 66.605469 40.132812 66.894531 L 39.972656 66.882812 L 40.007812 67.328125 C 40.039062 67.667969 40.078125 68.007812 40.109375 68.347656 C 38.871094 68.570312 37.609375 68.695312 36.347656 68.6875 C 35.097656 68.683594 33.847656 68.570312 32.617188 68.34375 L 32.734375 67.332031 L 32.792969 66.851562 L 32.679688 66.859375 C 32.761719 65.671875 32.832031 64.488281 32.980469 63.316406 C 33.171875 61.660156 33.472656 60.015625 33.765625 58.363281 C 35.054688 58.351562 36.339844 58.328125 37.625 58.304688 L 38.769531 58.320312 C 38.976562 60.003906 39.214844 61.671875 39.503906 63.339844 C 39.628906 64.246094 39.785156 65.140625 39.960938 66.039062 Z M 44.128906 53.992188 C 44.140625 55.113281 44.132812 56.238281 44.128906 57.363281 L 44.121094 57.363281 L 15.699219 57.195312 L 8.59375 57.207031 L 5.039062 57.21875 L 3.265625 57.222656 L 2.820312 57.222656 C 2.683594 57.222656 2.597656 57.210938 2.484375 57.183594 C 2.28125 57.117188 2.085938 56.996094 1.957031 56.824219 C 1.824219 56.636719 1.746094 56.445312 1.746094 56.183594 L 1.710938 55.300781 L 1.640625 53.527344 L 1.507812 49.976562 L 1.289062 42.882812 C 1.082031 38.148438 1.136719 33.414062 1.210938 28.679688 C 1.28125 23.9375 1.507812 19.207031 1.746094 14.480469 C 1.753906 13.996094 2.0625 13.609375 2.484375 13.480469 C 2.597656 13.453125 2.683594 13.445312 2.820312 13.445312 L 6.375 13.445312 L 6.351562 14.683594 C 6.347656 14.84375 6.339844 15.007812 6.339844 15.164062 L 6.28125 15.164062 L 5.484375 15.183594 L 5.078125 15.1875 C 4.949219 15.195312 4.828125 15.1875 4.640625 15.207031 C 3.964844 15.289062 3.347656 15.78125 3.15625 16.457031 C 3.109375 16.609375 3.085938 16.820312 3.078125 16.949219 L 3.0625 17.347656 L 3.027344 18.144531 L 2.890625 21.355469 C 2.730469 25.640625 2.636719 29.917969 2.625 34.199219 C 2.613281 36.339844 2.691406 38.476562 2.757812 40.617188 L 2.945312 47.027344 L 3.039062 50.234375 L 3.085938 51.84375 C 3.085938 52.136719 3.183594 52.519531 3.378906 52.792969 C 3.566406 53.085938 3.839844 53.308594 4.152344 53.441406 C 4.453125 53.582031 4.851562 53.59375 5.085938 53.585938 L 5.882812 53.597656 L 6.242188 53.597656 L 6.246094 53.828125 L 6.792969 53.832031 C 9.519531 53.875 12.253906 53.851562 14.988281 53.855469 C 17.722656 53.855469 20.453125 53.878906 23.191406 53.851562 C 25.898438 53.832031 28.71875 53.773438 31.476562 53.714844 L 33.496094 53.652344 C 34.453125 53.652344 35.402344 53.644531 36.351562 53.632812 C 38.945312 53.628906 41.539062 53.609375 44.132812 53.570312 C 44.132812 53.714844 44.128906 53.851562 44.128906 53.992188 Z M 6.019531 45.558594 C 6.054688 47.984375 6.128906 50.410156 6.21875 52.835938 L 5.902344 52.828125 L 5.101562 52.816406 C 4.804688 52.816406 4.65625 52.8125 4.464844 52.730469 C 4.097656 52.558594 3.859375 52.226562 3.863281 51.796875 L 3.816406 50.199219 L 3.734375 46.996094 L 3.578125 40.589844 C 3.519531 38.453125 3.460938 36.324219 3.484375 34.1875 C 3.476562 29.921875 3.546875 25.644531 3.6875 21.378906 L 3.804688 18.175781 L 3.839844 17.378906 L 3.859375 16.980469 C 3.859375 16.832031 3.871094 16.773438 3.894531 16.667969 C 4 16.304688 4.339844 16.011719 4.734375 15.96875 L 6.316406 15.933594 C 6.257812 18.09375 6.269531 20.246094 6.230469 22.398438 C 6.113281 27.550781 6.042969 32.691406 6 37.835938 C 5.984375 40.414062 5.988281 42.988281 6.019531 45.558594 Z M 44.214844 41.972656 C 44.152344 42.132812 44.132812 42.34375 44.140625 42.46875 L 44.144531 42.867188 L 44.164062 44.460938 C 44.179688 45.523438 44.1875 46.582031 44.175781 47.636719 C 44.175781 49.507812 44.167969 51.367188 44.140625 53.246094 L 42.761719 53.246094 L 39.632812 53.226562 L 39.714844 51.140625 L 40.761719 50.898438 C 41.113281 50.804688 41.457031 50.769531 41.832031 50.660156 C 42.203125 50.511719 42.367188 50 42.117188 49.683594 C 41.785156 49.238281 41.464844 48.792969 41.160156 48.339844 L 40.296875 47.007812 C 40.253906 46.222656 40.207031 45.429688 40.136719 44.648438 C 40.109375 44.316406 40.0625 43.980469 40.027344 43.652344 L 40.242188 38.132812 C 40.25 37.90625 40.261719 37.691406 40.265625 37.46875 C 40.882812 37.351562 41.492188 37.238281 42.117188 37.140625 C 44.238281 36.789062 46.382812 36.582031 48.527344 36.441406 C 50.675781 36.304688 52.824219 36.269531 54.964844 36.289062 C 57.089844 36.324219 59.214844 36.394531 61.332031 36.546875 L 61.402344 36.558594 C 61.464844 36.570312 61.523438 36.570312 61.589844 36.566406 L 61.785156 36.582031 L 61.777344 36.546875 C 62.09375 36.480469 62.398438 36.28125 62.558594 36 C 62.675781 35.8125 62.746094 35.601562 62.761719 35.390625 C 62.773438 35.285156 62.773438 35.175781 62.761719 35.074219 L 62.738281 34.828125 C 62.667969 34.171875 62.59375 33.511719 62.480469 32.855469 C 62.265625 31.546875 61.988281 30.25 61.617188 28.976562 C 61.378906 28.132812 61.109375 27.292969 60.832031 26.472656 L 60.878906 26.371094 C 61.324219 25.535156 61.484375 24.546875 61.347656 23.621094 C 61.289062 23.15625 61.171875 22.707031 61.03125 22.257812 C 60.886719 21.824219 60.734375 21.402344 60.558594 20.984375 C 60.386719 20.5625 60.191406 20.152344 59.980469 19.75 C 59.769531 19.34375 59.53125 18.945312 59.238281 18.570312 C 58.667969 17.8125 57.851562 17.242188 56.953125 16.886719 L 56.71875 16.789062 C 56.503906 16.367188 56.28125 15.945312 56.054688 15.523438 L 62.410156 15.570312 L 65.621094 15.605469 L 67.226562 15.625 L 68.027344 15.628906 C 68.289062 15.625 68.554688 15.628906 68.796875 15.742188 C 69.164062 15.886719 69.453125 16.210938 69.550781 16.597656 C 69.550781 16.601562 69.550781 16.601562 69.550781 16.601562 C 68.3125 17.203125 67.074219 17.8125 65.867188 18.488281 C 67.132812 18.117188 68.371094 17.6875 69.597656 17.230469 L 69.597656 18.550781 L 69.59375 21.761719 L 69.582031 29 L 69.582031 29.007812 C 69.480469 29.011719 69.375 29.011719 69.269531 29.019531 C 67.992188 29.078125 66.707031 29.164062 65.433594 29.335938 C 66.710938 29.523438 67.996094 29.625 69.269531 29.6875 C 69.375 29.695312 69.480469 29.695312 69.582031 29.699219 L 69.574219 34.585938 L 69.605469 29.699219 C 70.171875 29.730469 70.75 29.757812 71.316406 29.769531 C 71.359375 33.488281 71.417969 37.214844 71.5 40.925781 L 70.550781 40.902344 C 70.238281 40.894531 69.921875 40.894531 69.609375 40.890625 L 69.574219 34.59375 L 69.582031 40.890625 C 65.667969 40.84375 61.753906 40.773438 57.847656 40.859375 C 53.609375 40.964844 49.390625 41.117188 45.136719 41.3125 C 44.726562 41.324219 44.34375 41.597656 44.214844 41.972656 Z M 73.695312 42.296875 L 75.285156 42.304688 L 75.382812 42.304688 L 75.402344 42.308594 C 75.414062 42.308594 75.417969 42.316406 75.429688 42.328125 C 75.4375 42.34375 75.441406 42.320312 75.449219 42.375 L 75.464844 42.773438 L 75.808594 49.101562 C 75.941406 51.210938 75.964844 53.320312 75.988281 55.433594 L 75.988281 58.601562 L 75.972656 60.191406 L 75.964844 60.59375 L 75.960938 60.78125 C 75.960938 60.808594 75.941406 60.867188 75.914062 60.910156 C 75.789062 61.101562 75.546875 61.265625 75.359375 61.40625 C 71.066406 61.238281 66.859375 61.195312 62.664062 61.171875 C 61.605469 61.167969 60.570312 61.183594 59.511719 61.160156 L 56.34375 61.078125 C 54.226562 61.03125 52.113281 61.003906 49.996094 61.007812 L 46.820312 61.039062 L 45.238281 61.054688 C 45.050781 61.066406 44.980469 61.019531 44.898438 60.921875 C 44.867188 60.855469 44.847656 60.832031 44.847656 60.722656 L 44.824219 60.320312 C 44.789062 59.59375 44.75 58.878906 44.726562 58.152344 C 44.707031 57.894531 44.695312 57.625 44.691406 57.363281 C 44.632812 56.238281 44.589844 55.105469 44.5625 53.980469 L 44.5625 53.234375 C 44.5625 51.367188 44.609375 49.507812 44.648438 47.636719 C 44.660156 46.582031 44.691406 45.53125 44.738281 44.472656 L 44.796875 42.890625 C 44.8125 42.632812 44.789062 42.320312 44.859375 42.210938 C 44.910156 42.078125 45.042969 42.003906 45.171875 42.003906 C 49.386719 42.0625 53.632812 42.085938 57.851562 42.0625 C 59.96875 42.019531 62.082031 42.125 64.199219 42.164062 C 66.003906 42.210938 67.796875 42.238281 69.597656 42.261719 L 69.632812 42.261719 C 69.9375 42.269531 70.246094 42.269531 70.542969 42.273438 L 71.535156 42.28125 L 71.894531 42.28125 Z M 73.695312 42.296875 " fill-opacity="1" fill-rule="nonzero"/></g></g></g></g></svg>